<mxfile host="app.diagrams.net" agent="Mozilla/5.0 (Windows NT 10.0; Win64; x64) AppleWebKit/537.36 (KHTML, like Gecko) Chrome/141.0.0.0 Safari/537.36" version="28.2.5">
  <diagram name="Страница — 1" id="hgkMthfuOUoYbkFymvBo">
    <mxGraphModel dx="1678" dy="968" grid="1" gridSize="10" guides="1" tooltips="1" connect="1" arrows="1" fold="1" page="0" pageScale="1" pageWidth="827" pageHeight="1169" math="0" shadow="0">
      <root>
        <mxCell id="0" />
        <mxCell id="1" parent="0" />
        <mxCell id="C4me2KuEJBU7en0Y0sO0-1" value="&lt;font style=&quot;font-size: 24px;&quot;&gt;1&lt;/font&gt;" style="text;html=1;align=center;verticalAlign=middle;whiteSpace=wrap;rounded=0;strokeWidth=1;" parent="1" vertex="1">
          <mxGeometry x="190" y="210" width="60" height="30" as="geometry" />
        </mxCell>
        <mxCell id="C4me2KuEJBU7en0Y0sO0-2" value="&lt;font style=&quot;font-size: 24px;&quot;&gt;1&lt;/font&gt;" style="text;html=1;align=center;verticalAlign=middle;whiteSpace=wrap;rounded=0;fontSize=18;strokeWidth=1;" parent="1" vertex="1">
          <mxGeometry x="230" y="210" width="60" height="30" as="geometry" />
        </mxCell>
        <mxCell id="C4me2KuEJBU7en0Y0sO0-3" value="&lt;font style=&quot;font-size: 24px;&quot;&gt;0&lt;/font&gt;" style="text;html=1;align=center;verticalAlign=middle;whiteSpace=wrap;rounded=0;strokeWidth=1;" parent="1" vertex="1">
          <mxGeometry x="270" y="210" width="60" height="30" as="geometry" />
        </mxCell>
        <mxCell id="C4me2KuEJBU7en0Y0sO0-4" value="&lt;font style=&quot;font-size: 24px;&quot;&gt;0&lt;/font&gt;" style="text;html=1;align=center;verticalAlign=middle;whiteSpace=wrap;rounded=0;strokeWidth=1;" parent="1" vertex="1">
          <mxGeometry x="310" y="210" width="60" height="30" as="geometry" />
        </mxCell>
        <mxCell id="C4me2KuEJBU7en0Y0sO0-5" value="&lt;font style=&quot;font-size: 24px;&quot;&gt;0&lt;/font&gt;" style="text;html=1;align=center;verticalAlign=middle;whiteSpace=wrap;rounded=0;strokeWidth=1;" parent="1" vertex="1">
          <mxGeometry x="350" y="210" width="60" height="30" as="geometry" />
        </mxCell>
        <mxCell id="C4me2KuEJBU7en0Y0sO0-6" value="&lt;span style=&quot;font-size: 24px;&quot;&gt;0&lt;/span&gt;" style="text;html=1;align=center;verticalAlign=middle;whiteSpace=wrap;rounded=0;strokeWidth=1;" parent="1" vertex="1">
          <mxGeometry x="390" y="210" width="60" height="30" as="geometry" />
        </mxCell>
        <mxCell id="C4me2KuEJBU7en0Y0sO0-7" value="&lt;span style=&quot;font-size: 24px;&quot;&gt;0&lt;/span&gt;" style="text;html=1;align=center;verticalAlign=middle;whiteSpace=wrap;rounded=0;strokeWidth=1;" parent="1" vertex="1">
          <mxGeometry x="430" y="210" width="60" height="30" as="geometry" />
        </mxCell>
        <mxCell id="C4me2KuEJBU7en0Y0sO0-8" value="&lt;span style=&quot;font-size: 24px;&quot;&gt;1&lt;/span&gt;" style="text;html=1;align=center;verticalAlign=middle;whiteSpace=wrap;rounded=0;strokeWidth=1;" parent="1" vertex="1">
          <mxGeometry x="470" y="210" width="60" height="30" as="geometry" />
        </mxCell>
        <mxCell id="C4me2KuEJBU7en0Y0sO0-9" value="&lt;span style=&quot;font-size: 24px;&quot;&gt;1&lt;/span&gt;" style="text;html=1;align=center;verticalAlign=middle;whiteSpace=wrap;rounded=0;strokeWidth=1;" parent="1" vertex="1">
          <mxGeometry x="510" y="210" width="60" height="30" as="geometry" />
        </mxCell>
        <mxCell id="C4me2KuEJBU7en0Y0sO0-10" value="&lt;font style=&quot;font-size: 24px;&quot;&gt;1&lt;/font&gt;" style="text;html=1;align=center;verticalAlign=middle;whiteSpace=wrap;rounded=0;strokeWidth=1;" parent="1" vertex="1">
          <mxGeometry x="550" y="210" width="60" height="30" as="geometry" />
        </mxCell>
        <mxCell id="C4me2KuEJBU7en0Y0sO0-11" value="&lt;span style=&quot;font-size: 24px;&quot;&gt;1&lt;/span&gt;" style="text;html=1;align=center;verticalAlign=middle;whiteSpace=wrap;rounded=0;strokeWidth=1;" parent="1" vertex="1">
          <mxGeometry x="590" y="210" width="60" height="30" as="geometry" />
        </mxCell>
        <mxCell id="C4me2KuEJBU7en0Y0sO0-12" value="&lt;span style=&quot;font-size: 24px;&quot;&gt;0&lt;/span&gt;" style="text;html=1;align=center;verticalAlign=middle;whiteSpace=wrap;rounded=0;strokeWidth=1;" parent="1" vertex="1">
          <mxGeometry x="630" y="210" width="60" height="30" as="geometry" />
        </mxCell>
        <mxCell id="C4me2KuEJBU7en0Y0sO0-13" value="&lt;span style=&quot;font-size: 24px;&quot;&gt;0&lt;/span&gt;" style="text;html=1;align=center;verticalAlign=middle;whiteSpace=wrap;rounded=0;strokeWidth=1;" parent="1" vertex="1">
          <mxGeometry x="670" y="210" width="60" height="30" as="geometry" />
        </mxCell>
        <mxCell id="C4me2KuEJBU7en0Y0sO0-14" value="&lt;span style=&quot;font-size: 24px;&quot;&gt;0&lt;/span&gt;" style="text;html=1;align=center;verticalAlign=middle;whiteSpace=wrap;rounded=0;strokeWidth=1;" parent="1" vertex="1">
          <mxGeometry x="710" y="210" width="60" height="30" as="geometry" />
        </mxCell>
        <mxCell id="C4me2KuEJBU7en0Y0sO0-15" value="&lt;span style=&quot;font-size: 24px;&quot;&gt;0&lt;/span&gt;" style="text;html=1;align=center;verticalAlign=middle;whiteSpace=wrap;rounded=0;strokeWidth=1;" parent="1" vertex="1">
          <mxGeometry x="750" y="210" width="60" height="30" as="geometry" />
        </mxCell>
        <mxCell id="C4me2KuEJBU7en0Y0sO0-16" value="&lt;span style=&quot;font-size: 24px;&quot;&gt;0&lt;/span&gt;" style="text;html=1;align=center;verticalAlign=middle;whiteSpace=wrap;rounded=0;strokeWidth=1;" parent="1" vertex="1">
          <mxGeometry x="790" y="210" width="60" height="30" as="geometry" />
        </mxCell>
        <mxCell id="C4me2KuEJBU7en0Y0sO0-17" value="&lt;font style=&quot;font-size: 24px;&quot;&gt;1&lt;/font&gt;" style="text;html=1;align=center;verticalAlign=middle;whiteSpace=wrap;rounded=0;strokeWidth=1;" parent="1" vertex="1">
          <mxGeometry x="827" y="210" width="60" height="30" as="geometry" />
        </mxCell>
        <mxCell id="C4me2KuEJBU7en0Y0sO0-18" value="&lt;span style=&quot;font-size: 24px;&quot;&gt;1&lt;/span&gt;" style="text;html=1;align=center;verticalAlign=middle;whiteSpace=wrap;rounded=0;strokeWidth=1;" parent="1" vertex="1">
          <mxGeometry x="870" y="210" width="60" height="30" as="geometry" />
        </mxCell>
        <mxCell id="C4me2KuEJBU7en0Y0sO0-19" value="&lt;font style=&quot;font-size: 24px;&quot;&gt;0&lt;/font&gt;" style="text;html=1;align=center;verticalAlign=middle;whiteSpace=wrap;rounded=0;strokeWidth=1;" parent="1" vertex="1">
          <mxGeometry x="910" y="210" width="60" height="30" as="geometry" />
        </mxCell>
        <mxCell id="C4me2KuEJBU7en0Y0sO0-20" value="&lt;span style=&quot;font-size: 24px;&quot;&gt;1&lt;/span&gt;" style="text;html=1;align=center;verticalAlign=middle;whiteSpace=wrap;rounded=0;strokeWidth=1;" parent="1" vertex="1">
          <mxGeometry x="950" y="210" width="60" height="30" as="geometry" />
        </mxCell>
        <mxCell id="C4me2KuEJBU7en0Y0sO0-21" value="&lt;span style=&quot;font-size: 24px;&quot;&gt;0&lt;/span&gt;" style="text;html=1;align=center;verticalAlign=middle;whiteSpace=wrap;rounded=0;strokeWidth=1;" parent="1" vertex="1">
          <mxGeometry x="990" y="210" width="60" height="30" as="geometry" />
        </mxCell>
        <mxCell id="C4me2KuEJBU7en0Y0sO0-22" value="&lt;span style=&quot;font-size: 24px;&quot;&gt;0&lt;/span&gt;" style="text;html=1;align=center;verticalAlign=middle;whiteSpace=wrap;rounded=0;strokeWidth=1;" parent="1" vertex="1">
          <mxGeometry x="1030" y="210" width="60" height="30" as="geometry" />
        </mxCell>
        <mxCell id="C4me2KuEJBU7en0Y0sO0-23" value="&lt;span style=&quot;font-size: 24px;&quot;&gt;0&lt;/span&gt;" style="text;html=1;align=center;verticalAlign=middle;whiteSpace=wrap;rounded=0;strokeWidth=1;" parent="1" vertex="1">
          <mxGeometry x="1070" y="210" width="60" height="30" as="geometry" />
        </mxCell>
        <mxCell id="C4me2KuEJBU7en0Y0sO0-24" value="&lt;span style=&quot;font-size: 24px;&quot;&gt;0&lt;/span&gt;" style="text;html=1;align=center;verticalAlign=middle;whiteSpace=wrap;rounded=0;strokeWidth=1;" parent="1" vertex="1">
          <mxGeometry x="1110" y="210" width="60" height="30" as="geometry" />
        </mxCell>
        <mxCell id="C4me2KuEJBU7en0Y0sO0-25" value="&lt;span style=&quot;font-size: 24px;&quot;&gt;0&lt;/span&gt;" style="text;html=1;align=center;verticalAlign=middle;whiteSpace=wrap;rounded=0;strokeWidth=1;" parent="1" vertex="1">
          <mxGeometry x="1270" y="210" width="60" height="30" as="geometry" />
        </mxCell>
        <mxCell id="C4me2KuEJBU7en0Y0sO0-26" value="&lt;span style=&quot;font-size: 24px;&quot;&gt;0&lt;/span&gt;" style="text;html=1;align=center;verticalAlign=middle;whiteSpace=wrap;rounded=0;strokeWidth=1;" parent="1" vertex="1">
          <mxGeometry x="1230" y="210" width="60" height="30" as="geometry" />
        </mxCell>
        <mxCell id="C4me2KuEJBU7en0Y0sO0-27" value="&lt;font style=&quot;font-size: 24px;&quot;&gt;1&lt;/font&gt;" style="text;html=1;align=center;verticalAlign=middle;whiteSpace=wrap;rounded=0;strokeWidth=1;" parent="1" vertex="1">
          <mxGeometry x="1150" y="210" width="60" height="30" as="geometry" />
        </mxCell>
        <mxCell id="C4me2KuEJBU7en0Y0sO0-28" value="&lt;span style=&quot;font-size: 24px;&quot;&gt;1&lt;/span&gt;" style="text;html=1;align=center;verticalAlign=middle;whiteSpace=wrap;rounded=0;strokeWidth=1;" parent="1" vertex="1">
          <mxGeometry x="1190" y="210" width="60" height="30" as="geometry" />
        </mxCell>
        <mxCell id="C4me2KuEJBU7en0Y0sO0-29" value="&lt;span style=&quot;font-size: 24px;&quot;&gt;0&lt;/span&gt;" style="text;html=1;align=center;verticalAlign=middle;whiteSpace=wrap;rounded=0;strokeWidth=1;" parent="1" vertex="1">
          <mxGeometry x="1310" y="210" width="60" height="30" as="geometry" />
        </mxCell>
        <mxCell id="C4me2KuEJBU7en0Y0sO0-30" value="&lt;span style=&quot;font-size: 24px;&quot;&gt;1&lt;/span&gt;" style="text;html=1;align=center;verticalAlign=middle;whiteSpace=wrap;rounded=0;strokeWidth=1;" parent="1" vertex="1">
          <mxGeometry x="1350" y="210" width="60" height="30" as="geometry" />
        </mxCell>
        <mxCell id="C4me2KuEJBU7en0Y0sO0-31" value="&lt;span style=&quot;font-size: 24px;&quot;&gt;0&lt;/span&gt;" style="text;html=1;align=center;verticalAlign=middle;whiteSpace=wrap;rounded=0;strokeWidth=1;" parent="1" vertex="1">
          <mxGeometry x="1390" y="210" width="60" height="30" as="geometry" />
        </mxCell>
        <mxCell id="C4me2KuEJBU7en0Y0sO0-32" value="&lt;span style=&quot;font-size: 24px;&quot;&gt;0&lt;/span&gt;" style="text;html=1;align=center;verticalAlign=middle;whiteSpace=wrap;rounded=0;strokeWidth=1;" parent="1" vertex="1">
          <mxGeometry x="1430" y="210" width="60" height="30" as="geometry" />
        </mxCell>
        <mxCell id="C4me2KuEJBU7en0Y0sO0-139" value="&lt;font style=&quot;font-size: 18px;&quot;&gt;Manchester_code&lt;/font&gt;" style="text;html=1;align=center;verticalAlign=middle;whiteSpace=wrap;rounded=0;" parent="1" vertex="1">
          <mxGeometry x="90" y="300" width="60" height="30" as="geometry" />
        </mxCell>
        <mxCell id="C4me2KuEJBU7en0Y0sO0-163" value="&lt;font style=&quot;font-size: 18px;&quot;&gt;NRZ&lt;/font&gt;" style="text;html=1;align=center;verticalAlign=middle;whiteSpace=wrap;rounded=0;" parent="1" vertex="1">
          <mxGeometry x="130" y="420" width="60" height="30" as="geometry" />
        </mxCell>
        <mxCell id="C4me2KuEJBU7en0Y0sO0-291" value="&lt;span style=&quot;font-size: 18px;&quot;&gt;Diff_manchester&lt;/span&gt;" style="text;html=1;align=center;verticalAlign=middle;whiteSpace=wrap;rounded=0;" parent="1" vertex="1">
          <mxGeometry x="60" y="540" width="140" height="30" as="geometry" />
        </mxCell>
        <mxCell id="C4me2KuEJBU7en0Y0sO0-327" value="&lt;font style=&quot;font-size: 18px;&quot;&gt;AMI&lt;/font&gt;" style="text;html=1;align=center;verticalAlign=middle;whiteSpace=wrap;rounded=0;" parent="1" vertex="1">
          <mxGeometry x="140" y="660" width="60" height="30" as="geometry" />
        </mxCell>
        <mxCell id="C4me2KuEJBU7en0Y0sO0-352" value="&lt;font style=&quot;font-size: 18px;&quot;&gt;NRZI&lt;/font&gt;" style="text;html=1;align=center;verticalAlign=middle;whiteSpace=wrap;rounded=0;" parent="1" vertex="1">
          <mxGeometry x="140" y="780" width="60" height="30" as="geometry" />
        </mxCell>
        <mxCell id="C4me2KuEJBU7en0Y0sO0-381" value="" style="endArrow=none;dashed=1;html=1;rounded=0;opacity=40;" parent="1" edge="1">
          <mxGeometry width="50" height="50" relative="1" as="geometry">
            <mxPoint x="200" y="120" as="sourcePoint" />
            <mxPoint x="200" y="880" as="targetPoint" />
          </mxGeometry>
        </mxCell>
        <mxCell id="C4me2KuEJBU7en0Y0sO0-382" value="" style="endArrow=none;dashed=1;html=1;rounded=0;opacity=40;" parent="1" edge="1">
          <mxGeometry width="50" height="50" relative="1" as="geometry">
            <mxPoint x="1120" y="120" as="sourcePoint" />
            <mxPoint x="1120" y="880" as="targetPoint" />
          </mxGeometry>
        </mxCell>
        <mxCell id="C4me2KuEJBU7en0Y0sO0-383" value="" style="endArrow=none;dashed=1;html=1;rounded=0;opacity=40;" parent="1" edge="1">
          <mxGeometry width="50" height="50" relative="1" as="geometry">
            <mxPoint x="1080" y="120" as="sourcePoint" />
            <mxPoint x="1080" y="880" as="targetPoint" />
          </mxGeometry>
        </mxCell>
        <mxCell id="C4me2KuEJBU7en0Y0sO0-384" value="" style="endArrow=none;dashed=1;html=1;rounded=0;opacity=40;" parent="1" edge="1">
          <mxGeometry width="50" height="50" relative="1" as="geometry">
            <mxPoint x="240" y="120" as="sourcePoint" />
            <mxPoint x="240" y="880" as="targetPoint" />
          </mxGeometry>
        </mxCell>
        <mxCell id="C4me2KuEJBU7en0Y0sO0-385" value="" style="endArrow=none;dashed=1;html=1;rounded=0;opacity=40;" parent="1" edge="1">
          <mxGeometry width="50" height="50" relative="1" as="geometry">
            <mxPoint x="1040" y="120" as="sourcePoint" />
            <mxPoint x="1040" y="880" as="targetPoint" />
          </mxGeometry>
        </mxCell>
        <mxCell id="C4me2KuEJBU7en0Y0sO0-386" value="" style="endArrow=none;dashed=1;html=1;rounded=0;opacity=40;" parent="1" edge="1">
          <mxGeometry width="50" height="50" relative="1" as="geometry">
            <mxPoint x="1000" y="120" as="sourcePoint" />
            <mxPoint x="1000" y="880" as="targetPoint" />
          </mxGeometry>
        </mxCell>
        <mxCell id="C4me2KuEJBU7en0Y0sO0-387" value="" style="endArrow=none;dashed=1;html=1;rounded=0;opacity=40;" parent="1" edge="1">
          <mxGeometry width="50" height="50" relative="1" as="geometry">
            <mxPoint x="960" y="120" as="sourcePoint" />
            <mxPoint x="960" y="880" as="targetPoint" />
          </mxGeometry>
        </mxCell>
        <mxCell id="C4me2KuEJBU7en0Y0sO0-388" value="" style="endArrow=none;dashed=1;html=1;rounded=0;opacity=40;" parent="1" edge="1">
          <mxGeometry width="50" height="50" relative="1" as="geometry">
            <mxPoint x="280" y="120" as="sourcePoint" />
            <mxPoint x="280" y="880" as="targetPoint" />
          </mxGeometry>
        </mxCell>
        <mxCell id="C4me2KuEJBU7en0Y0sO0-389" value="" style="endArrow=none;dashed=1;html=1;rounded=0;opacity=40;" parent="1" edge="1">
          <mxGeometry width="50" height="50" relative="1" as="geometry">
            <mxPoint x="320" y="120" as="sourcePoint" />
            <mxPoint x="320" y="880" as="targetPoint" />
          </mxGeometry>
        </mxCell>
        <mxCell id="C4me2KuEJBU7en0Y0sO0-390" value="" style="endArrow=none;dashed=1;html=1;rounded=0;opacity=40;" parent="1" edge="1">
          <mxGeometry width="50" height="50" relative="1" as="geometry">
            <mxPoint x="920" y="120" as="sourcePoint" />
            <mxPoint x="920" y="880" as="targetPoint" />
          </mxGeometry>
        </mxCell>
        <mxCell id="C4me2KuEJBU7en0Y0sO0-391" value="" style="endArrow=none;dashed=1;html=1;rounded=0;opacity=40;" parent="1" edge="1">
          <mxGeometry width="50" height="50" relative="1" as="geometry">
            <mxPoint x="880" y="130" as="sourcePoint" />
            <mxPoint x="880" y="880" as="targetPoint" />
          </mxGeometry>
        </mxCell>
        <mxCell id="C4me2KuEJBU7en0Y0sO0-392" value="" style="endArrow=none;dashed=1;html=1;rounded=0;opacity=40;" parent="1" edge="1">
          <mxGeometry width="50" height="50" relative="1" as="geometry">
            <mxPoint x="840" y="120" as="sourcePoint" />
            <mxPoint x="840" y="880" as="targetPoint" />
          </mxGeometry>
        </mxCell>
        <mxCell id="C4me2KuEJBU7en0Y0sO0-393" value="" style="endArrow=none;dashed=1;html=1;rounded=0;opacity=40;" parent="1" edge="1">
          <mxGeometry width="50" height="50" relative="1" as="geometry">
            <mxPoint x="360" y="120" as="sourcePoint" />
            <mxPoint x="360" y="880" as="targetPoint" />
          </mxGeometry>
        </mxCell>
        <mxCell id="C4me2KuEJBU7en0Y0sO0-394" value="" style="endArrow=none;dashed=1;html=1;rounded=0;opacity=40;" parent="1" edge="1">
          <mxGeometry width="50" height="50" relative="1" as="geometry">
            <mxPoint x="800" y="120" as="sourcePoint" />
            <mxPoint x="800" y="880" as="targetPoint" />
          </mxGeometry>
        </mxCell>
        <mxCell id="C4me2KuEJBU7en0Y0sO0-395" value="" style="endArrow=none;dashed=1;html=1;rounded=0;opacity=40;" parent="1" edge="1">
          <mxGeometry width="50" height="50" relative="1" as="geometry">
            <mxPoint x="760" y="120" as="sourcePoint" />
            <mxPoint x="760" y="880" as="targetPoint" />
          </mxGeometry>
        </mxCell>
        <mxCell id="C4me2KuEJBU7en0Y0sO0-396" value="" style="endArrow=none;dashed=1;html=1;rounded=0;opacity=40;" parent="1" edge="1">
          <mxGeometry width="50" height="50" relative="1" as="geometry">
            <mxPoint x="720" y="120" as="sourcePoint" />
            <mxPoint x="720" y="880" as="targetPoint" />
          </mxGeometry>
        </mxCell>
        <mxCell id="C4me2KuEJBU7en0Y0sO0-397" value="" style="endArrow=none;dashed=1;html=1;rounded=0;opacity=40;" parent="1" edge="1">
          <mxGeometry width="50" height="50" relative="1" as="geometry">
            <mxPoint x="670" y="120" as="sourcePoint" />
            <mxPoint x="680" y="880" as="targetPoint" />
          </mxGeometry>
        </mxCell>
        <mxCell id="C4me2KuEJBU7en0Y0sO0-398" value="" style="endArrow=none;dashed=1;html=1;rounded=0;opacity=40;" parent="1" edge="1">
          <mxGeometry width="50" height="50" relative="1" as="geometry">
            <mxPoint x="400" y="120" as="sourcePoint" />
            <mxPoint x="400" y="880" as="targetPoint" />
          </mxGeometry>
        </mxCell>
        <mxCell id="C4me2KuEJBU7en0Y0sO0-399" value="" style="endArrow=none;dashed=1;html=1;rounded=0;opacity=40;" parent="1" edge="1">
          <mxGeometry width="50" height="50" relative="1" as="geometry">
            <mxPoint x="640" y="120" as="sourcePoint" />
            <mxPoint x="640" y="880" as="targetPoint" />
          </mxGeometry>
        </mxCell>
        <mxCell id="C4me2KuEJBU7en0Y0sO0-400" value="" style="endArrow=none;dashed=1;html=1;rounded=0;opacity=40;" parent="1" edge="1">
          <mxGeometry width="50" height="50" relative="1" as="geometry">
            <mxPoint x="440" y="120" as="sourcePoint" />
            <mxPoint x="440" y="880" as="targetPoint" />
          </mxGeometry>
        </mxCell>
        <mxCell id="C4me2KuEJBU7en0Y0sO0-401" value="" style="endArrow=none;dashed=1;html=1;rounded=0;opacity=40;" parent="1" edge="1">
          <mxGeometry width="50" height="50" relative="1" as="geometry">
            <mxPoint x="600" y="120" as="sourcePoint" />
            <mxPoint x="600" y="880" as="targetPoint" />
          </mxGeometry>
        </mxCell>
        <mxCell id="C4me2KuEJBU7en0Y0sO0-402" value="" style="endArrow=none;dashed=1;html=1;rounded=0;opacity=40;" parent="1" edge="1">
          <mxGeometry width="50" height="50" relative="1" as="geometry">
            <mxPoint x="480" y="120" as="sourcePoint" />
            <mxPoint x="480" y="880" as="targetPoint" />
          </mxGeometry>
        </mxCell>
        <mxCell id="C4me2KuEJBU7en0Y0sO0-403" value="" style="endArrow=none;dashed=1;html=1;rounded=0;opacity=40;" parent="1" edge="1">
          <mxGeometry width="50" height="50" relative="1" as="geometry">
            <mxPoint x="520" y="120" as="sourcePoint" />
            <mxPoint x="520" y="880" as="targetPoint" />
          </mxGeometry>
        </mxCell>
        <mxCell id="C4me2KuEJBU7en0Y0sO0-404" value="" style="endArrow=none;dashed=1;html=1;rounded=0;opacity=40;" parent="1" edge="1">
          <mxGeometry width="50" height="50" relative="1" as="geometry">
            <mxPoint x="560" y="120" as="sourcePoint" />
            <mxPoint x="560" y="880" as="targetPoint" />
          </mxGeometry>
        </mxCell>
        <mxCell id="C4me2KuEJBU7en0Y0sO0-406" value="" style="endArrow=none;dashed=1;html=1;rounded=0;opacity=40;" parent="1" edge="1">
          <mxGeometry width="50" height="50" relative="1" as="geometry">
            <mxPoint x="1480" y="120" as="sourcePoint" />
            <mxPoint x="1480" y="880" as="targetPoint" />
          </mxGeometry>
        </mxCell>
        <mxCell id="C4me2KuEJBU7en0Y0sO0-407" value="" style="endArrow=none;dashed=1;html=1;rounded=0;opacity=40;" parent="1" edge="1">
          <mxGeometry width="50" height="50" relative="1" as="geometry">
            <mxPoint x="1440" y="120" as="sourcePoint" />
            <mxPoint x="1440" y="880" as="targetPoint" />
          </mxGeometry>
        </mxCell>
        <mxCell id="C4me2KuEJBU7en0Y0sO0-408" value="" style="endArrow=none;dashed=1;html=1;rounded=0;opacity=40;" parent="1" edge="1">
          <mxGeometry width="50" height="50" relative="1" as="geometry">
            <mxPoint x="1400" y="120" as="sourcePoint" />
            <mxPoint x="1400" y="880" as="targetPoint" />
          </mxGeometry>
        </mxCell>
        <mxCell id="C4me2KuEJBU7en0Y0sO0-409" value="" style="endArrow=none;dashed=1;html=1;rounded=0;opacity=40;" parent="1" edge="1">
          <mxGeometry width="50" height="50" relative="1" as="geometry">
            <mxPoint x="1360" y="120" as="sourcePoint" />
            <mxPoint x="1360" y="880" as="targetPoint" />
          </mxGeometry>
        </mxCell>
        <mxCell id="C4me2KuEJBU7en0Y0sO0-410" value="" style="endArrow=none;dashed=1;html=1;rounded=0;opacity=40;" parent="1" edge="1">
          <mxGeometry width="50" height="50" relative="1" as="geometry">
            <mxPoint x="1320" y="120" as="sourcePoint" />
            <mxPoint x="1320" y="880" as="targetPoint" />
          </mxGeometry>
        </mxCell>
        <mxCell id="C4me2KuEJBU7en0Y0sO0-411" value="" style="endArrow=none;dashed=1;html=1;rounded=0;opacity=40;" parent="1" edge="1">
          <mxGeometry width="50" height="50" relative="1" as="geometry">
            <mxPoint x="1240" y="120" as="sourcePoint" />
            <mxPoint x="1240" y="880" as="targetPoint" />
          </mxGeometry>
        </mxCell>
        <mxCell id="C4me2KuEJBU7en0Y0sO0-412" value="" style="endArrow=none;dashed=1;html=1;rounded=0;opacity=40;" parent="1" edge="1">
          <mxGeometry width="50" height="50" relative="1" as="geometry">
            <mxPoint x="1160" y="120" as="sourcePoint" />
            <mxPoint x="1160" y="880" as="targetPoint" />
          </mxGeometry>
        </mxCell>
        <mxCell id="C4me2KuEJBU7en0Y0sO0-413" value="" style="endArrow=none;dashed=1;html=1;rounded=0;opacity=40;" parent="1" edge="1">
          <mxGeometry width="50" height="50" relative="1" as="geometry">
            <mxPoint x="1280" y="120" as="sourcePoint" />
            <mxPoint x="1280" y="880" as="targetPoint" />
          </mxGeometry>
        </mxCell>
        <mxCell id="C4me2KuEJBU7en0Y0sO0-414" value="" style="endArrow=none;dashed=1;html=1;rounded=0;opacity=40;" parent="1" edge="1">
          <mxGeometry width="50" height="50" relative="1" as="geometry">
            <mxPoint x="1200" y="120" as="sourcePoint" />
            <mxPoint x="1200" y="880" as="targetPoint" />
          </mxGeometry>
        </mxCell>
        <mxCell id="pguH2w8n3191PNCsji8N-177" value="" style="endArrow=none;html=1;rounded=0;strokeWidth=1;" edge="1" parent="1">
          <mxGeometry width="50" height="50" relative="1" as="geometry">
            <mxPoint x="200" y="280" as="sourcePoint" />
            <mxPoint x="220" y="280" as="targetPoint" />
          </mxGeometry>
        </mxCell>
        <mxCell id="pguH2w8n3191PNCsji8N-178" value="" style="endArrow=none;html=1;rounded=0;strokeWidth=1;" edge="1" parent="1">
          <mxGeometry width="50" height="50" relative="1" as="geometry">
            <mxPoint x="220" y="280" as="sourcePoint" />
            <mxPoint x="220" y="360" as="targetPoint" />
          </mxGeometry>
        </mxCell>
        <mxCell id="pguH2w8n3191PNCsji8N-179" value="" style="endArrow=none;html=1;rounded=0;strokeWidth=1;" edge="1" parent="1">
          <mxGeometry width="50" height="50" relative="1" as="geometry">
            <mxPoint x="220" y="360" as="sourcePoint" />
            <mxPoint x="240" y="360" as="targetPoint" />
          </mxGeometry>
        </mxCell>
        <mxCell id="pguH2w8n3191PNCsji8N-180" value="" style="endArrow=none;html=1;rounded=0;strokeWidth=1;" edge="1" parent="1">
          <mxGeometry width="50" height="50" relative="1" as="geometry">
            <mxPoint x="240" y="360" as="sourcePoint" />
            <mxPoint x="240" y="280" as="targetPoint" />
          </mxGeometry>
        </mxCell>
        <mxCell id="pguH2w8n3191PNCsji8N-181" value="" style="endArrow=none;html=1;rounded=0;strokeWidth=1;" edge="1" parent="1">
          <mxGeometry width="50" height="50" relative="1" as="geometry">
            <mxPoint x="240" y="280" as="sourcePoint" />
            <mxPoint x="260" y="280" as="targetPoint" />
          </mxGeometry>
        </mxCell>
        <mxCell id="pguH2w8n3191PNCsji8N-182" value="" style="endArrow=none;html=1;rounded=0;strokeWidth=1;" edge="1" parent="1">
          <mxGeometry width="50" height="50" relative="1" as="geometry">
            <mxPoint x="260" y="280" as="sourcePoint" />
            <mxPoint x="260" y="360" as="targetPoint" />
          </mxGeometry>
        </mxCell>
        <mxCell id="pguH2w8n3191PNCsji8N-183" value="" style="endArrow=none;html=1;rounded=0;strokeWidth=1;" edge="1" parent="1">
          <mxGeometry width="50" height="50" relative="1" as="geometry">
            <mxPoint x="260" y="360" as="sourcePoint" />
            <mxPoint x="300" y="360" as="targetPoint" />
          </mxGeometry>
        </mxCell>
        <mxCell id="pguH2w8n3191PNCsji8N-184" value="" style="endArrow=none;html=1;rounded=0;strokeWidth=1;" edge="1" parent="1">
          <mxGeometry width="50" height="50" relative="1" as="geometry">
            <mxPoint x="300" y="360" as="sourcePoint" />
            <mxPoint x="300" y="280" as="targetPoint" />
          </mxGeometry>
        </mxCell>
        <mxCell id="pguH2w8n3191PNCsji8N-185" value="" style="endArrow=none;html=1;rounded=0;strokeWidth=1;" edge="1" parent="1">
          <mxGeometry width="50" height="50" relative="1" as="geometry">
            <mxPoint x="300" y="280" as="sourcePoint" />
            <mxPoint x="320" y="280" as="targetPoint" />
          </mxGeometry>
        </mxCell>
        <mxCell id="pguH2w8n3191PNCsji8N-186" value="" style="endArrow=none;html=1;rounded=0;strokeWidth=1;" edge="1" parent="1">
          <mxGeometry width="50" height="50" relative="1" as="geometry">
            <mxPoint x="320" y="280" as="sourcePoint" />
            <mxPoint x="320" y="360" as="targetPoint" />
          </mxGeometry>
        </mxCell>
        <mxCell id="pguH2w8n3191PNCsji8N-187" value="" style="endArrow=none;html=1;rounded=0;strokeWidth=1;" edge="1" parent="1">
          <mxGeometry width="50" height="50" relative="1" as="geometry">
            <mxPoint x="320" y="360" as="sourcePoint" />
            <mxPoint x="340" y="360" as="targetPoint" />
          </mxGeometry>
        </mxCell>
        <mxCell id="pguH2w8n3191PNCsji8N-188" value="" style="endArrow=none;html=1;rounded=0;strokeWidth=1;" edge="1" parent="1">
          <mxGeometry width="50" height="50" relative="1" as="geometry">
            <mxPoint x="340" y="360" as="sourcePoint" />
            <mxPoint x="340" y="280" as="targetPoint" />
          </mxGeometry>
        </mxCell>
        <mxCell id="pguH2w8n3191PNCsji8N-189" value="" style="endArrow=none;html=1;rounded=0;strokeWidth=1;" edge="1" parent="1">
          <mxGeometry width="50" height="50" relative="1" as="geometry">
            <mxPoint x="340" y="280" as="sourcePoint" />
            <mxPoint x="360" y="280" as="targetPoint" />
          </mxGeometry>
        </mxCell>
        <mxCell id="pguH2w8n3191PNCsji8N-190" value="" style="endArrow=none;html=1;rounded=0;strokeWidth=1;" edge="1" parent="1">
          <mxGeometry width="50" height="50" relative="1" as="geometry">
            <mxPoint x="360" y="280" as="sourcePoint" />
            <mxPoint x="360" y="360" as="targetPoint" />
          </mxGeometry>
        </mxCell>
        <mxCell id="pguH2w8n3191PNCsji8N-191" value="" style="endArrow=none;html=1;rounded=0;strokeWidth=1;" edge="1" parent="1">
          <mxGeometry width="50" height="50" relative="1" as="geometry">
            <mxPoint x="360" y="360" as="sourcePoint" />
            <mxPoint x="380" y="360" as="targetPoint" />
          </mxGeometry>
        </mxCell>
        <mxCell id="pguH2w8n3191PNCsji8N-192" value="" style="endArrow=none;html=1;rounded=0;strokeWidth=1;" edge="1" parent="1">
          <mxGeometry width="50" height="50" relative="1" as="geometry">
            <mxPoint x="380" y="360" as="sourcePoint" />
            <mxPoint x="380" y="280" as="targetPoint" />
          </mxGeometry>
        </mxCell>
        <mxCell id="pguH2w8n3191PNCsji8N-193" value="" style="endArrow=none;html=1;rounded=0;strokeWidth=1;" edge="1" parent="1">
          <mxGeometry width="50" height="50" relative="1" as="geometry">
            <mxPoint x="380" y="280" as="sourcePoint" />
            <mxPoint x="400" y="280" as="targetPoint" />
          </mxGeometry>
        </mxCell>
        <mxCell id="pguH2w8n3191PNCsji8N-194" value="" style="endArrow=none;html=1;rounded=0;strokeWidth=1;" edge="1" parent="1">
          <mxGeometry width="50" height="50" relative="1" as="geometry">
            <mxPoint x="400" y="280" as="sourcePoint" />
            <mxPoint x="400" y="360" as="targetPoint" />
          </mxGeometry>
        </mxCell>
        <mxCell id="pguH2w8n3191PNCsji8N-195" value="" style="endArrow=none;html=1;rounded=0;strokeWidth=1;" edge="1" parent="1">
          <mxGeometry width="50" height="50" relative="1" as="geometry">
            <mxPoint x="400" y="360" as="sourcePoint" />
            <mxPoint x="420" y="360" as="targetPoint" />
          </mxGeometry>
        </mxCell>
        <mxCell id="pguH2w8n3191PNCsji8N-196" value="" style="endArrow=none;html=1;rounded=0;strokeWidth=1;" edge="1" parent="1">
          <mxGeometry width="50" height="50" relative="1" as="geometry">
            <mxPoint x="420" y="360" as="sourcePoint" />
            <mxPoint x="420" y="280" as="targetPoint" />
          </mxGeometry>
        </mxCell>
        <mxCell id="pguH2w8n3191PNCsji8N-197" value="" style="endArrow=none;html=1;rounded=0;strokeWidth=1;" edge="1" parent="1">
          <mxGeometry width="50" height="50" relative="1" as="geometry">
            <mxPoint x="420" y="280" as="sourcePoint" />
            <mxPoint x="440" y="280" as="targetPoint" />
          </mxGeometry>
        </mxCell>
        <mxCell id="pguH2w8n3191PNCsji8N-198" value="" style="endArrow=none;html=1;rounded=0;strokeWidth=1;" edge="1" parent="1">
          <mxGeometry width="50" height="50" relative="1" as="geometry">
            <mxPoint x="440" y="280" as="sourcePoint" />
            <mxPoint x="440" y="360" as="targetPoint" />
          </mxGeometry>
        </mxCell>
        <mxCell id="pguH2w8n3191PNCsji8N-199" value="" style="endArrow=none;html=1;rounded=0;strokeWidth=1;" edge="1" parent="1">
          <mxGeometry width="50" height="50" relative="1" as="geometry">
            <mxPoint x="440" y="360" as="sourcePoint" />
            <mxPoint x="460" y="360" as="targetPoint" />
          </mxGeometry>
        </mxCell>
        <mxCell id="pguH2w8n3191PNCsji8N-200" value="" style="endArrow=none;html=1;rounded=0;strokeWidth=1;" edge="1" parent="1">
          <mxGeometry width="50" height="50" relative="1" as="geometry">
            <mxPoint x="460" y="360" as="sourcePoint" />
            <mxPoint x="460" y="280" as="targetPoint" />
          </mxGeometry>
        </mxCell>
        <mxCell id="pguH2w8n3191PNCsji8N-201" value="" style="endArrow=none;html=1;rounded=0;strokeWidth=1;" edge="1" parent="1">
          <mxGeometry width="50" height="50" relative="1" as="geometry">
            <mxPoint x="460" y="280" as="sourcePoint" />
            <mxPoint x="480" y="280" as="targetPoint" />
          </mxGeometry>
        </mxCell>
        <mxCell id="pguH2w8n3191PNCsji8N-202" value="" style="endArrow=none;html=1;rounded=0;strokeWidth=1;" edge="1" parent="1">
          <mxGeometry width="50" height="50" relative="1" as="geometry">
            <mxPoint x="480" y="280" as="sourcePoint" />
            <mxPoint x="480" y="360" as="targetPoint" />
          </mxGeometry>
        </mxCell>
        <mxCell id="pguH2w8n3191PNCsji8N-203" value="" style="endArrow=none;html=1;rounded=0;strokeWidth=1;" edge="1" parent="1">
          <mxGeometry width="50" height="50" relative="1" as="geometry">
            <mxPoint x="480" y="360" as="sourcePoint" />
            <mxPoint x="500" y="360" as="targetPoint" />
          </mxGeometry>
        </mxCell>
        <mxCell id="pguH2w8n3191PNCsji8N-204" value="" style="endArrow=none;html=1;rounded=0;strokeWidth=1;" edge="1" parent="1">
          <mxGeometry width="50" height="50" relative="1" as="geometry">
            <mxPoint x="500" y="360" as="sourcePoint" />
            <mxPoint x="500" y="280" as="targetPoint" />
          </mxGeometry>
        </mxCell>
        <mxCell id="pguH2w8n3191PNCsji8N-205" value="" style="endArrow=none;html=1;rounded=0;strokeWidth=1;" edge="1" parent="1">
          <mxGeometry width="50" height="50" relative="1" as="geometry">
            <mxPoint x="540" y="280" as="sourcePoint" />
            <mxPoint x="500" y="280" as="targetPoint" />
          </mxGeometry>
        </mxCell>
        <mxCell id="pguH2w8n3191PNCsji8N-206" value="" style="endArrow=none;html=1;rounded=0;strokeWidth=1;" edge="1" parent="1">
          <mxGeometry width="50" height="50" relative="1" as="geometry">
            <mxPoint x="540" y="360" as="sourcePoint" />
            <mxPoint x="540" y="280" as="targetPoint" />
          </mxGeometry>
        </mxCell>
        <mxCell id="pguH2w8n3191PNCsji8N-207" value="" style="endArrow=none;html=1;rounded=0;strokeWidth=1;" edge="1" parent="1">
          <mxGeometry width="50" height="50" relative="1" as="geometry">
            <mxPoint x="560" y="360" as="sourcePoint" />
            <mxPoint x="540" y="360" as="targetPoint" />
          </mxGeometry>
        </mxCell>
        <mxCell id="pguH2w8n3191PNCsji8N-208" value="" style="endArrow=none;html=1;rounded=0;strokeWidth=1;" edge="1" parent="1">
          <mxGeometry width="50" height="50" relative="1" as="geometry">
            <mxPoint x="560" y="360" as="sourcePoint" />
            <mxPoint x="560" y="280" as="targetPoint" />
          </mxGeometry>
        </mxCell>
        <mxCell id="pguH2w8n3191PNCsji8N-209" value="" style="endArrow=none;html=1;rounded=0;strokeWidth=1;" edge="1" parent="1">
          <mxGeometry width="50" height="50" relative="1" as="geometry">
            <mxPoint x="580" y="280" as="sourcePoint" />
            <mxPoint x="560" y="280" as="targetPoint" />
          </mxGeometry>
        </mxCell>
        <mxCell id="pguH2w8n3191PNCsji8N-210" value="" style="endArrow=none;html=1;rounded=0;strokeWidth=1;" edge="1" parent="1">
          <mxGeometry width="50" height="50" relative="1" as="geometry">
            <mxPoint x="580" y="360" as="sourcePoint" />
            <mxPoint x="580" y="280" as="targetPoint" />
          </mxGeometry>
        </mxCell>
        <mxCell id="pguH2w8n3191PNCsji8N-211" value="" style="endArrow=none;html=1;rounded=0;strokeWidth=1;" edge="1" parent="1">
          <mxGeometry width="50" height="50" relative="1" as="geometry">
            <mxPoint x="580" y="360" as="sourcePoint" />
            <mxPoint x="600" y="360" as="targetPoint" />
          </mxGeometry>
        </mxCell>
        <mxCell id="pguH2w8n3191PNCsji8N-212" value="" style="endArrow=none;html=1;rounded=0;strokeWidth=1;" edge="1" parent="1">
          <mxGeometry width="50" height="50" relative="1" as="geometry">
            <mxPoint x="600" y="360" as="sourcePoint" />
            <mxPoint x="600" y="280" as="targetPoint" />
          </mxGeometry>
        </mxCell>
        <mxCell id="pguH2w8n3191PNCsji8N-213" value="" style="endArrow=none;html=1;rounded=0;strokeWidth=1;" edge="1" parent="1">
          <mxGeometry width="50" height="50" relative="1" as="geometry">
            <mxPoint x="600" y="280" as="sourcePoint" />
            <mxPoint x="620" y="280" as="targetPoint" />
          </mxGeometry>
        </mxCell>
        <mxCell id="pguH2w8n3191PNCsji8N-214" value="" style="endArrow=none;html=1;rounded=0;strokeWidth=1;" edge="1" parent="1">
          <mxGeometry width="50" height="50" relative="1" as="geometry">
            <mxPoint x="620" y="360" as="sourcePoint" />
            <mxPoint x="620" y="280" as="targetPoint" />
          </mxGeometry>
        </mxCell>
        <mxCell id="pguH2w8n3191PNCsji8N-215" value="" style="endArrow=none;html=1;rounded=0;strokeWidth=1;" edge="1" parent="1">
          <mxGeometry width="50" height="50" relative="1" as="geometry">
            <mxPoint x="620" y="360" as="sourcePoint" />
            <mxPoint x="660" y="360" as="targetPoint" />
          </mxGeometry>
        </mxCell>
        <mxCell id="pguH2w8n3191PNCsji8N-216" value="" style="endArrow=none;html=1;rounded=0;strokeWidth=1;" edge="1" parent="1">
          <mxGeometry width="50" height="50" relative="1" as="geometry">
            <mxPoint x="660" y="360" as="sourcePoint" />
            <mxPoint x="660" y="280" as="targetPoint" />
          </mxGeometry>
        </mxCell>
        <mxCell id="pguH2w8n3191PNCsji8N-217" value="" style="endArrow=none;html=1;rounded=0;strokeWidth=1;" edge="1" parent="1">
          <mxGeometry width="50" height="50" relative="1" as="geometry">
            <mxPoint x="660" y="280" as="sourcePoint" />
            <mxPoint x="680" y="280" as="targetPoint" />
          </mxGeometry>
        </mxCell>
        <mxCell id="pguH2w8n3191PNCsji8N-218" value="" style="endArrow=none;html=1;rounded=0;strokeWidth=1;" edge="1" parent="1">
          <mxGeometry width="50" height="50" relative="1" as="geometry">
            <mxPoint x="680" y="280" as="sourcePoint" />
            <mxPoint x="700" y="280" as="targetPoint" />
            <Array as="points">
              <mxPoint x="690" y="280" />
            </Array>
          </mxGeometry>
        </mxCell>
        <mxCell id="pguH2w8n3191PNCsji8N-219" value="" style="endArrow=none;html=1;rounded=0;strokeWidth=1;" edge="1" parent="1">
          <mxGeometry width="50" height="50" relative="1" as="geometry">
            <mxPoint x="700" y="360" as="sourcePoint" />
            <mxPoint x="700" y="280" as="targetPoint" />
          </mxGeometry>
        </mxCell>
        <mxCell id="pguH2w8n3191PNCsji8N-220" value="" style="endArrow=none;html=1;rounded=0;strokeWidth=1;" edge="1" parent="1">
          <mxGeometry width="50" height="50" relative="1" as="geometry">
            <mxPoint x="700" y="360" as="sourcePoint" />
            <mxPoint x="720" y="360" as="targetPoint" />
          </mxGeometry>
        </mxCell>
        <mxCell id="pguH2w8n3191PNCsji8N-221" value="" style="endArrow=none;html=1;rounded=0;strokeWidth=1;" edge="1" parent="1">
          <mxGeometry width="50" height="50" relative="1" as="geometry">
            <mxPoint x="720" y="360" as="sourcePoint" />
            <mxPoint x="720" y="360" as="targetPoint" />
          </mxGeometry>
        </mxCell>
        <mxCell id="pguH2w8n3191PNCsji8N-222" value="" style="endArrow=none;html=1;rounded=0;strokeWidth=1;" edge="1" parent="1">
          <mxGeometry width="50" height="50" relative="1" as="geometry">
            <mxPoint x="720" y="360" as="sourcePoint" />
            <mxPoint x="720" y="280" as="targetPoint" />
          </mxGeometry>
        </mxCell>
        <mxCell id="pguH2w8n3191PNCsji8N-223" value="" style="endArrow=none;html=1;rounded=0;strokeWidth=1;" edge="1" parent="1">
          <mxGeometry width="50" height="50" relative="1" as="geometry">
            <mxPoint x="720" y="280" as="sourcePoint" />
            <mxPoint x="740" y="280" as="targetPoint" />
          </mxGeometry>
        </mxCell>
        <mxCell id="pguH2w8n3191PNCsji8N-224" value="" style="endArrow=none;html=1;rounded=0;strokeWidth=1;" edge="1" parent="1">
          <mxGeometry width="50" height="50" relative="1" as="geometry">
            <mxPoint x="740" y="280" as="sourcePoint" />
            <mxPoint x="740" y="360" as="targetPoint" />
          </mxGeometry>
        </mxCell>
        <mxCell id="pguH2w8n3191PNCsji8N-225" value="" style="endArrow=none;html=1;rounded=0;strokeWidth=1;" edge="1" parent="1">
          <mxGeometry width="50" height="50" relative="1" as="geometry">
            <mxPoint x="740" y="360" as="sourcePoint" />
            <mxPoint x="780" y="360" as="targetPoint" />
          </mxGeometry>
        </mxCell>
        <mxCell id="pguH2w8n3191PNCsji8N-226" value="" style="endArrow=none;html=1;rounded=0;strokeWidth=1;" edge="1" parent="1">
          <mxGeometry width="50" height="50" relative="1" as="geometry">
            <mxPoint x="780" y="360" as="sourcePoint" />
            <mxPoint x="780" y="280" as="targetPoint" />
          </mxGeometry>
        </mxCell>
        <mxCell id="pguH2w8n3191PNCsji8N-227" value="" style="endArrow=none;html=1;rounded=0;strokeWidth=1;" edge="1" parent="1">
          <mxGeometry width="50" height="50" relative="1" as="geometry">
            <mxPoint x="800" y="280" as="sourcePoint" />
            <mxPoint x="780" y="280" as="targetPoint" />
          </mxGeometry>
        </mxCell>
        <mxCell id="pguH2w8n3191PNCsji8N-228" value="" style="endArrow=none;html=1;rounded=0;strokeWidth=1;" edge="1" parent="1">
          <mxGeometry width="50" height="50" relative="1" as="geometry">
            <mxPoint x="820" y="360" as="sourcePoint" />
            <mxPoint x="820" y="280" as="targetPoint" />
          </mxGeometry>
        </mxCell>
        <mxCell id="pguH2w8n3191PNCsji8N-229" value="" style="endArrow=none;html=1;rounded=0;strokeWidth=1;" edge="1" parent="1">
          <mxGeometry width="50" height="50" relative="1" as="geometry">
            <mxPoint x="800" y="280" as="sourcePoint" />
            <mxPoint x="820" y="280" as="targetPoint" />
          </mxGeometry>
        </mxCell>
        <mxCell id="pguH2w8n3191PNCsji8N-230" value="" style="endArrow=none;html=1;rounded=0;strokeWidth=1;" edge="1" parent="1">
          <mxGeometry width="50" height="50" relative="1" as="geometry">
            <mxPoint x="840" y="280" as="sourcePoint" />
            <mxPoint x="840" y="360" as="targetPoint" />
          </mxGeometry>
        </mxCell>
        <mxCell id="pguH2w8n3191PNCsji8N-231" value="" style="endArrow=none;html=1;rounded=0;strokeWidth=1;" edge="1" parent="1">
          <mxGeometry width="50" height="50" relative="1" as="geometry">
            <mxPoint x="840" y="280" as="sourcePoint" />
            <mxPoint x="860" y="280" as="targetPoint" />
          </mxGeometry>
        </mxCell>
        <mxCell id="pguH2w8n3191PNCsji8N-232" value="" style="endArrow=none;html=1;rounded=0;strokeWidth=1;" edge="1" parent="1">
          <mxGeometry width="50" height="50" relative="1" as="geometry">
            <mxPoint x="860" y="360" as="sourcePoint" />
            <mxPoint x="860" y="280" as="targetPoint" />
          </mxGeometry>
        </mxCell>
        <mxCell id="pguH2w8n3191PNCsji8N-233" value="" style="endArrow=none;html=1;rounded=0;strokeWidth=1;" edge="1" parent="1">
          <mxGeometry width="50" height="50" relative="1" as="geometry">
            <mxPoint x="880" y="360" as="sourcePoint" />
            <mxPoint x="860" y="360" as="targetPoint" />
          </mxGeometry>
        </mxCell>
        <mxCell id="pguH2w8n3191PNCsji8N-234" value="" style="endArrow=none;html=1;rounded=0;strokeWidth=1;" edge="1" parent="1">
          <mxGeometry width="50" height="50" relative="1" as="geometry">
            <mxPoint x="880" y="360" as="sourcePoint" />
            <mxPoint x="880" y="280" as="targetPoint" />
          </mxGeometry>
        </mxCell>
        <mxCell id="pguH2w8n3191PNCsji8N-235" value="" style="endArrow=none;html=1;rounded=0;strokeWidth=1;" edge="1" parent="1">
          <mxGeometry width="50" height="50" relative="1" as="geometry">
            <mxPoint x="900" y="280" as="sourcePoint" />
            <mxPoint x="880" y="280" as="targetPoint" />
          </mxGeometry>
        </mxCell>
        <mxCell id="pguH2w8n3191PNCsji8N-236" value="" style="endArrow=none;html=1;rounded=0;strokeWidth=1;" edge="1" parent="1">
          <mxGeometry width="50" height="50" relative="1" as="geometry">
            <mxPoint x="900" y="280" as="sourcePoint" />
            <mxPoint x="900" y="360" as="targetPoint" />
          </mxGeometry>
        </mxCell>
        <mxCell id="pguH2w8n3191PNCsji8N-237" value="" style="endArrow=none;html=1;rounded=0;strokeWidth=1;" edge="1" parent="1">
          <mxGeometry width="50" height="50" relative="1" as="geometry">
            <mxPoint x="940" y="360" as="sourcePoint" />
            <mxPoint x="900" y="360" as="targetPoint" />
          </mxGeometry>
        </mxCell>
        <mxCell id="pguH2w8n3191PNCsji8N-238" value="" style="endArrow=none;html=1;rounded=0;strokeWidth=1;" edge="1" parent="1">
          <mxGeometry width="50" height="50" relative="1" as="geometry">
            <mxPoint x="940" y="280" as="sourcePoint" />
            <mxPoint x="940" y="360" as="targetPoint" />
          </mxGeometry>
        </mxCell>
        <mxCell id="pguH2w8n3191PNCsji8N-239" value="" style="endArrow=none;html=1;rounded=0;strokeWidth=1;" edge="1" parent="1">
          <mxGeometry width="50" height="50" relative="1" as="geometry">
            <mxPoint x="960" y="280" as="sourcePoint" />
            <mxPoint x="940" y="280" as="targetPoint" />
          </mxGeometry>
        </mxCell>
        <mxCell id="pguH2w8n3191PNCsji8N-240" value="" style="endArrow=none;html=1;rounded=0;strokeWidth=1;" edge="1" parent="1">
          <mxGeometry width="50" height="50" relative="1" as="geometry">
            <mxPoint x="960" y="280" as="sourcePoint" />
            <mxPoint x="960" y="360" as="targetPoint" />
          </mxGeometry>
        </mxCell>
        <mxCell id="pguH2w8n3191PNCsji8N-241" value="" style="endArrow=none;html=1;rounded=0;strokeWidth=1;" edge="1" parent="1">
          <mxGeometry width="50" height="50" relative="1" as="geometry">
            <mxPoint x="960" y="360" as="sourcePoint" />
            <mxPoint x="980" y="360" as="targetPoint" />
          </mxGeometry>
        </mxCell>
        <mxCell id="pguH2w8n3191PNCsji8N-242" value="" style="endArrow=none;html=1;rounded=0;strokeWidth=1;" edge="1" parent="1">
          <mxGeometry width="50" height="50" relative="1" as="geometry">
            <mxPoint x="1020" y="280" as="sourcePoint" />
            <mxPoint x="1020" y="360" as="targetPoint" />
          </mxGeometry>
        </mxCell>
        <mxCell id="pguH2w8n3191PNCsji8N-243" value="" style="endArrow=none;html=1;rounded=0;strokeWidth=1;" edge="1" parent="1">
          <mxGeometry width="50" height="50" relative="1" as="geometry">
            <mxPoint x="1040" y="280" as="sourcePoint" />
            <mxPoint x="1020" y="280" as="targetPoint" />
          </mxGeometry>
        </mxCell>
        <mxCell id="pguH2w8n3191PNCsji8N-244" value="" style="endArrow=none;html=1;rounded=0;strokeWidth=1;" edge="1" parent="1">
          <mxGeometry width="50" height="50" relative="1" as="geometry">
            <mxPoint x="1040" y="280" as="sourcePoint" />
            <mxPoint x="1040" y="360" as="targetPoint" />
          </mxGeometry>
        </mxCell>
        <mxCell id="pguH2w8n3191PNCsji8N-245" value="" style="endArrow=none;html=1;rounded=0;strokeWidth=1;" edge="1" parent="1">
          <mxGeometry width="50" height="50" relative="1" as="geometry">
            <mxPoint x="1060" y="360" as="sourcePoint" />
            <mxPoint x="1040" y="360" as="targetPoint" />
          </mxGeometry>
        </mxCell>
        <mxCell id="pguH2w8n3191PNCsji8N-246" value="" style="endArrow=none;html=1;rounded=0;strokeWidth=1;" edge="1" parent="1">
          <mxGeometry width="50" height="50" relative="1" as="geometry">
            <mxPoint x="1060" y="280" as="sourcePoint" />
            <mxPoint x="1060" y="360" as="targetPoint" />
          </mxGeometry>
        </mxCell>
        <mxCell id="pguH2w8n3191PNCsji8N-247" value="" style="endArrow=none;html=1;rounded=0;strokeWidth=1;" edge="1" parent="1">
          <mxGeometry width="50" height="50" relative="1" as="geometry">
            <mxPoint x="1060" y="280" as="sourcePoint" />
            <mxPoint x="1080" y="280" as="targetPoint" />
          </mxGeometry>
        </mxCell>
        <mxCell id="pguH2w8n3191PNCsji8N-248" value="" style="endArrow=none;html=1;rounded=0;strokeWidth=1;" edge="1" parent="1">
          <mxGeometry width="50" height="50" relative="1" as="geometry">
            <mxPoint x="1100" y="280" as="sourcePoint" />
            <mxPoint x="1080" y="280" as="targetPoint" />
          </mxGeometry>
        </mxCell>
        <mxCell id="pguH2w8n3191PNCsji8N-249" value="" style="endArrow=none;html=1;rounded=0;strokeWidth=1;" edge="1" parent="1">
          <mxGeometry width="50" height="50" relative="1" as="geometry">
            <mxPoint x="1100" y="280" as="sourcePoint" />
            <mxPoint x="1100" y="360" as="targetPoint" />
          </mxGeometry>
        </mxCell>
        <mxCell id="pguH2w8n3191PNCsji8N-250" value="" style="endArrow=none;html=1;rounded=0;strokeWidth=1;" edge="1" parent="1">
          <mxGeometry width="50" height="50" relative="1" as="geometry">
            <mxPoint x="1120" y="360" as="sourcePoint" />
            <mxPoint x="1100" y="360" as="targetPoint" />
          </mxGeometry>
        </mxCell>
        <mxCell id="pguH2w8n3191PNCsji8N-251" value="" style="endArrow=none;html=1;rounded=0;strokeWidth=1;" edge="1" parent="1">
          <mxGeometry width="50" height="50" relative="1" as="geometry">
            <mxPoint x="1140" y="280" as="sourcePoint" />
            <mxPoint x="1120" y="280" as="targetPoint" />
          </mxGeometry>
        </mxCell>
        <mxCell id="pguH2w8n3191PNCsji8N-252" value="" style="endArrow=none;html=1;rounded=0;strokeWidth=1;" edge="1" parent="1">
          <mxGeometry width="50" height="50" relative="1" as="geometry">
            <mxPoint x="1120" y="360" as="sourcePoint" />
            <mxPoint x="1120" y="280" as="targetPoint" />
          </mxGeometry>
        </mxCell>
        <mxCell id="pguH2w8n3191PNCsji8N-253" value="" style="endArrow=none;html=1;rounded=0;strokeWidth=1;" edge="1" parent="1">
          <mxGeometry width="50" height="50" relative="1" as="geometry">
            <mxPoint x="1140" y="280" as="sourcePoint" />
            <mxPoint x="1140" y="360" as="targetPoint" />
          </mxGeometry>
        </mxCell>
        <mxCell id="pguH2w8n3191PNCsji8N-254" value="" style="endArrow=none;html=1;rounded=0;strokeWidth=1;" edge="1" parent="1">
          <mxGeometry width="50" height="50" relative="1" as="geometry">
            <mxPoint x="1180" y="280" as="sourcePoint" />
            <mxPoint x="1180" y="360" as="targetPoint" />
          </mxGeometry>
        </mxCell>
        <mxCell id="pguH2w8n3191PNCsji8N-255" value="" style="endArrow=none;html=1;rounded=0;strokeWidth=1;" edge="1" parent="1">
          <mxGeometry width="50" height="50" relative="1" as="geometry">
            <mxPoint x="1200" y="360" as="sourcePoint" />
            <mxPoint x="1180" y="360" as="targetPoint" />
          </mxGeometry>
        </mxCell>
        <mxCell id="pguH2w8n3191PNCsji8N-256" value="" style="endArrow=none;html=1;rounded=0;strokeWidth=1;" edge="1" parent="1">
          <mxGeometry width="50" height="50" relative="1" as="geometry">
            <mxPoint x="1200" y="280" as="sourcePoint" />
            <mxPoint x="1200" y="360" as="targetPoint" />
          </mxGeometry>
        </mxCell>
        <mxCell id="pguH2w8n3191PNCsji8N-257" value="" style="endArrow=none;html=1;rounded=0;strokeWidth=1;" edge="1" parent="1">
          <mxGeometry width="50" height="50" relative="1" as="geometry">
            <mxPoint x="1200" y="280" as="sourcePoint" />
            <mxPoint x="1220" y="280" as="targetPoint" />
          </mxGeometry>
        </mxCell>
        <mxCell id="pguH2w8n3191PNCsji8N-258" value="" style="endArrow=none;html=1;rounded=0;strokeWidth=1;" edge="1" parent="1">
          <mxGeometry width="50" height="50" relative="1" as="geometry">
            <mxPoint x="1220" y="280" as="sourcePoint" />
            <mxPoint x="1220" y="360" as="targetPoint" />
          </mxGeometry>
        </mxCell>
        <mxCell id="pguH2w8n3191PNCsji8N-259" value="" style="endArrow=none;html=1;rounded=0;strokeWidth=1;" edge="1" parent="1">
          <mxGeometry width="50" height="50" relative="1" as="geometry">
            <mxPoint x="1260" y="360" as="sourcePoint" />
            <mxPoint x="1220" y="360" as="targetPoint" />
          </mxGeometry>
        </mxCell>
        <mxCell id="pguH2w8n3191PNCsji8N-260" value="" style="endArrow=none;html=1;rounded=0;strokeWidth=1;" edge="1" parent="1">
          <mxGeometry width="50" height="50" relative="1" as="geometry">
            <mxPoint x="1260" y="280" as="sourcePoint" />
            <mxPoint x="1260" y="360" as="targetPoint" />
          </mxGeometry>
        </mxCell>
        <mxCell id="pguH2w8n3191PNCsji8N-261" value="" style="endArrow=none;html=1;rounded=0;strokeWidth=1;" edge="1" parent="1">
          <mxGeometry width="50" height="50" relative="1" as="geometry">
            <mxPoint x="1280" y="280" as="sourcePoint" />
            <mxPoint x="1260" y="280" as="targetPoint" />
          </mxGeometry>
        </mxCell>
        <mxCell id="pguH2w8n3191PNCsji8N-262" value="" style="endArrow=none;html=1;rounded=0;strokeWidth=1;" edge="1" parent="1">
          <mxGeometry width="50" height="50" relative="1" as="geometry">
            <mxPoint x="1280" y="280" as="sourcePoint" />
            <mxPoint x="1280" y="360" as="targetPoint" />
          </mxGeometry>
        </mxCell>
        <mxCell id="pguH2w8n3191PNCsji8N-263" value="" style="endArrow=none;html=1;rounded=0;strokeWidth=1;" edge="1" parent="1">
          <mxGeometry width="50" height="50" relative="1" as="geometry">
            <mxPoint x="1300" y="360" as="sourcePoint" />
            <mxPoint x="1280" y="360" as="targetPoint" />
          </mxGeometry>
        </mxCell>
        <mxCell id="pguH2w8n3191PNCsji8N-264" value="" style="endArrow=none;html=1;rounded=0;strokeWidth=1;" edge="1" parent="1">
          <mxGeometry width="50" height="50" relative="1" as="geometry">
            <mxPoint x="1300" y="280" as="sourcePoint" />
            <mxPoint x="1300" y="360" as="targetPoint" />
          </mxGeometry>
        </mxCell>
        <mxCell id="pguH2w8n3191PNCsji8N-265" value="" style="endArrow=none;html=1;rounded=0;strokeWidth=1;" edge="1" parent="1">
          <mxGeometry width="50" height="50" relative="1" as="geometry">
            <mxPoint x="1320" y="280" as="sourcePoint" />
            <mxPoint x="1300" y="280" as="targetPoint" />
          </mxGeometry>
        </mxCell>
        <mxCell id="pguH2w8n3191PNCsji8N-266" value="" style="endArrow=none;html=1;rounded=0;strokeWidth=1;" edge="1" parent="1">
          <mxGeometry width="50" height="50" relative="1" as="geometry">
            <mxPoint x="1320" y="360" as="sourcePoint" />
            <mxPoint x="1320" y="280" as="targetPoint" />
          </mxGeometry>
        </mxCell>
        <mxCell id="pguH2w8n3191PNCsji8N-267" value="" style="endArrow=none;html=1;rounded=0;strokeWidth=1;" edge="1" parent="1">
          <mxGeometry width="50" height="50" relative="1" as="geometry">
            <mxPoint x="1340" y="360" as="sourcePoint" />
            <mxPoint x="1340" y="280" as="targetPoint" />
          </mxGeometry>
        </mxCell>
        <mxCell id="pguH2w8n3191PNCsji8N-268" value="" style="endArrow=none;html=1;rounded=0;strokeWidth=1;" edge="1" parent="1">
          <mxGeometry width="50" height="50" relative="1" as="geometry">
            <mxPoint x="1340" y="360" as="sourcePoint" />
            <mxPoint x="1320" y="360" as="targetPoint" />
          </mxGeometry>
        </mxCell>
        <mxCell id="pguH2w8n3191PNCsji8N-269" value="" style="endArrow=none;html=1;rounded=0;strokeWidth=1;" edge="1" parent="1">
          <mxGeometry width="50" height="50" relative="1" as="geometry">
            <mxPoint x="1340" y="280" as="sourcePoint" />
            <mxPoint x="1360" y="280" as="targetPoint" />
          </mxGeometry>
        </mxCell>
        <mxCell id="pguH2w8n3191PNCsji8N-270" value="" style="endArrow=none;html=1;rounded=0;strokeWidth=1;" edge="1" parent="1">
          <mxGeometry width="50" height="50" relative="1" as="geometry">
            <mxPoint x="1360" y="360" as="sourcePoint" />
            <mxPoint x="1360" y="280" as="targetPoint" />
          </mxGeometry>
        </mxCell>
        <mxCell id="pguH2w8n3191PNCsji8N-271" value="" style="endArrow=none;html=1;rounded=0;strokeWidth=1;" edge="1" parent="1">
          <mxGeometry width="50" height="50" relative="1" as="geometry">
            <mxPoint x="1420" y="280" as="sourcePoint" />
            <mxPoint x="1400" y="280" as="targetPoint" />
          </mxGeometry>
        </mxCell>
        <mxCell id="pguH2w8n3191PNCsji8N-272" value="" style="endArrow=none;html=1;rounded=0;strokeWidth=1;" edge="1" parent="1">
          <mxGeometry width="50" height="50" relative="1" as="geometry">
            <mxPoint x="1420" y="280" as="sourcePoint" />
            <mxPoint x="1420" y="360" as="targetPoint" />
          </mxGeometry>
        </mxCell>
        <mxCell id="pguH2w8n3191PNCsji8N-273" value="" style="endArrow=none;html=1;rounded=0;strokeWidth=1;" edge="1" parent="1">
          <mxGeometry width="50" height="50" relative="1" as="geometry">
            <mxPoint x="1420" y="360" as="sourcePoint" />
            <mxPoint x="1440" y="360" as="targetPoint" />
          </mxGeometry>
        </mxCell>
        <mxCell id="pguH2w8n3191PNCsji8N-274" value="" style="endArrow=none;html=1;rounded=0;strokeWidth=1;" edge="1" parent="1">
          <mxGeometry width="50" height="50" relative="1" as="geometry">
            <mxPoint x="1460" y="360" as="sourcePoint" />
            <mxPoint x="1440" y="360" as="targetPoint" />
          </mxGeometry>
        </mxCell>
        <mxCell id="pguH2w8n3191PNCsji8N-275" value="" style="endArrow=none;html=1;rounded=0;strokeWidth=1;" edge="1" parent="1">
          <mxGeometry width="50" height="50" relative="1" as="geometry">
            <mxPoint x="1460" y="360" as="sourcePoint" />
            <mxPoint x="1460" y="280" as="targetPoint" />
          </mxGeometry>
        </mxCell>
        <mxCell id="pguH2w8n3191PNCsji8N-276" value="" style="endArrow=none;html=1;rounded=0;strokeWidth=1;" edge="1" parent="1">
          <mxGeometry width="50" height="50" relative="1" as="geometry">
            <mxPoint x="1460" y="280" as="sourcePoint" />
            <mxPoint x="1480" y="280" as="targetPoint" />
          </mxGeometry>
        </mxCell>
        <mxCell id="pguH2w8n3191PNCsji8N-277" value="" style="endArrow=none;html=1;rounded=0;strokeWidth=1;" edge="1" parent="1">
          <mxGeometry width="50" height="50" relative="1" as="geometry">
            <mxPoint x="820" y="360" as="sourcePoint" />
            <mxPoint x="840" y="360" as="targetPoint" />
          </mxGeometry>
        </mxCell>
        <mxCell id="pguH2w8n3191PNCsji8N-278" value="" style="endArrow=none;html=1;rounded=0;strokeWidth=1;" edge="1" parent="1">
          <mxGeometry width="50" height="50" relative="1" as="geometry">
            <mxPoint x="979.5" y="280" as="sourcePoint" />
            <mxPoint x="979.5" y="360" as="targetPoint" />
          </mxGeometry>
        </mxCell>
        <mxCell id="pguH2w8n3191PNCsji8N-279" value="" style="endArrow=none;html=1;rounded=0;strokeWidth=1;" edge="1" parent="1">
          <mxGeometry width="50" height="50" relative="1" as="geometry">
            <mxPoint x="980" y="280" as="sourcePoint" />
            <mxPoint x="1000" y="280" as="targetPoint" />
          </mxGeometry>
        </mxCell>
        <mxCell id="pguH2w8n3191PNCsji8N-280" value="" style="endArrow=none;html=1;rounded=0;strokeWidth=1;" edge="1" parent="1">
          <mxGeometry width="50" height="50" relative="1" as="geometry">
            <mxPoint x="1000" y="280" as="sourcePoint" />
            <mxPoint x="1000" y="360" as="targetPoint" />
          </mxGeometry>
        </mxCell>
        <mxCell id="pguH2w8n3191PNCsji8N-281" value="" style="endArrow=none;html=1;rounded=0;strokeWidth=1;" edge="1" parent="1">
          <mxGeometry width="50" height="50" relative="1" as="geometry">
            <mxPoint x="1000" y="360" as="sourcePoint" />
            <mxPoint x="1020" y="360" as="targetPoint" />
          </mxGeometry>
        </mxCell>
        <mxCell id="pguH2w8n3191PNCsji8N-282" value="" style="endArrow=none;html=1;rounded=0;strokeWidth=1;" edge="1" parent="1">
          <mxGeometry width="50" height="50" relative="1" as="geometry">
            <mxPoint x="1160" y="360" as="sourcePoint" />
            <mxPoint x="1140" y="360" as="targetPoint" />
          </mxGeometry>
        </mxCell>
        <mxCell id="pguH2w8n3191PNCsji8N-283" value="" style="endArrow=none;html=1;rounded=0;strokeWidth=1;" edge="1" parent="1">
          <mxGeometry width="50" height="50" relative="1" as="geometry">
            <mxPoint x="1160" y="280" as="sourcePoint" />
            <mxPoint x="1160" y="360" as="targetPoint" />
          </mxGeometry>
        </mxCell>
        <mxCell id="pguH2w8n3191PNCsji8N-284" value="" style="endArrow=none;html=1;rounded=0;strokeWidth=1;" edge="1" parent="1">
          <mxGeometry width="50" height="50" relative="1" as="geometry">
            <mxPoint x="1180" y="280" as="sourcePoint" />
            <mxPoint x="1160" y="280" as="targetPoint" />
          </mxGeometry>
        </mxCell>
        <mxCell id="pguH2w8n3191PNCsji8N-285" value="" style="endArrow=none;html=1;rounded=0;strokeWidth=1;" edge="1" parent="1">
          <mxGeometry width="50" height="50" relative="1" as="geometry">
            <mxPoint x="1400" y="280" as="sourcePoint" />
            <mxPoint x="1380" y="280" as="targetPoint" />
          </mxGeometry>
        </mxCell>
        <mxCell id="pguH2w8n3191PNCsji8N-286" value="" style="endArrow=none;html=1;rounded=0;strokeWidth=1;" edge="1" parent="1">
          <mxGeometry width="50" height="50" relative="1" as="geometry">
            <mxPoint x="1380" y="360" as="sourcePoint" />
            <mxPoint x="1360" y="360" as="targetPoint" />
          </mxGeometry>
        </mxCell>
        <mxCell id="pguH2w8n3191PNCsji8N-287" value="" style="endArrow=none;html=1;rounded=0;strokeWidth=1;" edge="1" parent="1">
          <mxGeometry width="50" height="50" relative="1" as="geometry">
            <mxPoint x="1379.5" y="360" as="sourcePoint" />
            <mxPoint x="1379.5" y="280" as="targetPoint" />
          </mxGeometry>
        </mxCell>
        <mxCell id="pguH2w8n3191PNCsji8N-288" value="" style="endArrow=none;html=1;rounded=0;" edge="1" parent="1">
          <mxGeometry width="50" height="50" relative="1" as="geometry">
            <mxPoint x="200" y="760" as="sourcePoint" />
            <mxPoint x="240" y="760" as="targetPoint" />
          </mxGeometry>
        </mxCell>
        <mxCell id="pguH2w8n3191PNCsji8N-289" value="" style="endArrow=none;html=1;rounded=0;" edge="1" parent="1">
          <mxGeometry width="50" height="50" relative="1" as="geometry">
            <mxPoint x="240" y="760" as="sourcePoint" />
            <mxPoint x="240" y="840" as="targetPoint" />
          </mxGeometry>
        </mxCell>
        <mxCell id="pguH2w8n3191PNCsji8N-290" value="" style="endArrow=none;html=1;rounded=0;" edge="1" parent="1">
          <mxGeometry width="50" height="50" relative="1" as="geometry">
            <mxPoint x="240" y="840" as="sourcePoint" />
            <mxPoint x="520" y="840" as="targetPoint" />
          </mxGeometry>
        </mxCell>
        <mxCell id="pguH2w8n3191PNCsji8N-291" value="" style="endArrow=none;html=1;rounded=0;" edge="1" parent="1">
          <mxGeometry width="50" height="50" relative="1" as="geometry">
            <mxPoint x="520" y="760" as="sourcePoint" />
            <mxPoint x="520" y="840" as="targetPoint" />
          </mxGeometry>
        </mxCell>
        <mxCell id="pguH2w8n3191PNCsji8N-292" value="" style="endArrow=none;html=1;rounded=0;" edge="1" parent="1">
          <mxGeometry width="50" height="50" relative="1" as="geometry">
            <mxPoint x="520" y="760" as="sourcePoint" />
            <mxPoint x="560" y="760" as="targetPoint" />
          </mxGeometry>
        </mxCell>
        <mxCell id="pguH2w8n3191PNCsji8N-293" value="" style="endArrow=none;html=1;rounded=0;" edge="1" parent="1">
          <mxGeometry width="50" height="50" relative="1" as="geometry">
            <mxPoint x="560" y="760" as="sourcePoint" />
            <mxPoint x="560" y="840" as="targetPoint" />
          </mxGeometry>
        </mxCell>
        <mxCell id="pguH2w8n3191PNCsji8N-294" value="" style="endArrow=none;html=1;rounded=0;" edge="1" parent="1">
          <mxGeometry width="50" height="50" relative="1" as="geometry">
            <mxPoint x="560" y="840" as="sourcePoint" />
            <mxPoint x="600" y="840" as="targetPoint" />
          </mxGeometry>
        </mxCell>
        <mxCell id="pguH2w8n3191PNCsji8N-295" value="" style="endArrow=none;html=1;rounded=0;" edge="1" parent="1">
          <mxGeometry width="50" height="50" relative="1" as="geometry">
            <mxPoint x="680" y="840" as="sourcePoint" />
            <mxPoint x="720" y="840" as="targetPoint" />
          </mxGeometry>
        </mxCell>
        <mxCell id="pguH2w8n3191PNCsji8N-296" value="" style="endArrow=none;html=1;rounded=0;" edge="1" parent="1">
          <mxGeometry width="50" height="50" relative="1" as="geometry">
            <mxPoint x="840" y="840" as="sourcePoint" />
            <mxPoint x="840" y="760" as="targetPoint" />
          </mxGeometry>
        </mxCell>
        <mxCell id="pguH2w8n3191PNCsji8N-297" value="" style="endArrow=none;html=1;rounded=0;" edge="1" parent="1">
          <mxGeometry width="50" height="50" relative="1" as="geometry">
            <mxPoint x="840" y="760" as="sourcePoint" />
            <mxPoint x="880" y="760" as="targetPoint" />
          </mxGeometry>
        </mxCell>
        <mxCell id="pguH2w8n3191PNCsji8N-298" value="" style="endArrow=none;html=1;rounded=0;" edge="1" parent="1">
          <mxGeometry width="50" height="50" relative="1" as="geometry">
            <mxPoint x="880" y="760" as="sourcePoint" />
            <mxPoint x="880" y="840" as="targetPoint" />
          </mxGeometry>
        </mxCell>
        <mxCell id="pguH2w8n3191PNCsji8N-299" value="" style="endArrow=none;html=1;rounded=0;" edge="1" parent="1">
          <mxGeometry width="50" height="50" relative="1" as="geometry">
            <mxPoint x="1080" y="840" as="sourcePoint" />
            <mxPoint x="880" y="840" as="targetPoint" />
          </mxGeometry>
        </mxCell>
        <mxCell id="pguH2w8n3191PNCsji8N-300" value="" style="endArrow=none;html=1;rounded=0;" edge="1" parent="1">
          <mxGeometry width="50" height="50" relative="1" as="geometry">
            <mxPoint x="1160" y="840" as="sourcePoint" />
            <mxPoint x="1160" y="760" as="targetPoint" />
          </mxGeometry>
        </mxCell>
        <mxCell id="pguH2w8n3191PNCsji8N-301" value="" style="endArrow=none;html=1;rounded=0;" edge="1" parent="1">
          <mxGeometry width="50" height="50" relative="1" as="geometry">
            <mxPoint x="1400" y="840" as="sourcePoint" />
            <mxPoint x="1200" y="840" as="targetPoint" />
          </mxGeometry>
        </mxCell>
        <mxCell id="pguH2w8n3191PNCsji8N-302" value="" style="endArrow=none;html=1;rounded=0;" edge="1" parent="1">
          <mxGeometry width="50" height="50" relative="1" as="geometry">
            <mxPoint x="1200" y="760" as="sourcePoint" />
            <mxPoint x="1200" y="840" as="targetPoint" />
          </mxGeometry>
        </mxCell>
        <mxCell id="pguH2w8n3191PNCsji8N-303" value="" style="endArrow=none;html=1;rounded=0;" edge="1" parent="1">
          <mxGeometry width="50" height="50" relative="1" as="geometry">
            <mxPoint x="600" y="760" as="sourcePoint" />
            <mxPoint x="680" y="760" as="targetPoint" />
          </mxGeometry>
        </mxCell>
        <mxCell id="pguH2w8n3191PNCsji8N-304" value="" style="endArrow=none;html=1;rounded=0;" edge="1" parent="1">
          <mxGeometry width="50" height="50" relative="1" as="geometry">
            <mxPoint x="600" y="760" as="sourcePoint" />
            <mxPoint x="600" y="840" as="targetPoint" />
          </mxGeometry>
        </mxCell>
        <mxCell id="pguH2w8n3191PNCsji8N-305" value="" style="endArrow=none;html=1;rounded=0;" edge="1" parent="1">
          <mxGeometry width="50" height="50" relative="1" as="geometry">
            <mxPoint x="680" y="760" as="sourcePoint" />
            <mxPoint x="680" y="840" as="targetPoint" />
          </mxGeometry>
        </mxCell>
        <mxCell id="pguH2w8n3191PNCsji8N-306" value="" style="endArrow=none;html=1;rounded=0;" edge="1" parent="1">
          <mxGeometry width="50" height="50" relative="1" as="geometry">
            <mxPoint x="720" y="760" as="sourcePoint" />
            <mxPoint x="800" y="760" as="targetPoint" />
          </mxGeometry>
        </mxCell>
        <mxCell id="pguH2w8n3191PNCsji8N-307" value="" style="endArrow=none;html=1;rounded=0;" edge="1" parent="1">
          <mxGeometry width="50" height="50" relative="1" as="geometry">
            <mxPoint x="720" y="760" as="sourcePoint" />
            <mxPoint x="720" y="840" as="targetPoint" />
          </mxGeometry>
        </mxCell>
        <mxCell id="pguH2w8n3191PNCsji8N-308" value="" style="endArrow=none;html=1;rounded=0;" edge="1" parent="1">
          <mxGeometry width="50" height="50" relative="1" as="geometry">
            <mxPoint x="800" y="760" as="sourcePoint" />
            <mxPoint x="800" y="840" as="targetPoint" />
          </mxGeometry>
        </mxCell>
        <mxCell id="pguH2w8n3191PNCsji8N-309" value="" style="endArrow=none;html=1;rounded=0;" edge="1" parent="1">
          <mxGeometry width="50" height="50" relative="1" as="geometry">
            <mxPoint x="800" y="840" as="sourcePoint" />
            <mxPoint x="840" y="840" as="targetPoint" />
          </mxGeometry>
        </mxCell>
        <mxCell id="pguH2w8n3191PNCsji8N-310" value="" style="endArrow=none;html=1;rounded=0;" edge="1" parent="1">
          <mxGeometry width="50" height="50" relative="1" as="geometry">
            <mxPoint x="1080" y="840" as="sourcePoint" />
            <mxPoint x="1080" y="760" as="targetPoint" />
          </mxGeometry>
        </mxCell>
        <mxCell id="pguH2w8n3191PNCsji8N-311" value="" style="endArrow=none;html=1;rounded=0;" edge="1" parent="1">
          <mxGeometry width="50" height="50" relative="1" as="geometry">
            <mxPoint x="1120" y="840" as="sourcePoint" />
            <mxPoint x="1120" y="760" as="targetPoint" />
          </mxGeometry>
        </mxCell>
        <mxCell id="pguH2w8n3191PNCsji8N-312" value="" style="endArrow=none;html=1;rounded=0;" edge="1" parent="1">
          <mxGeometry width="50" height="50" relative="1" as="geometry">
            <mxPoint x="1080" y="760" as="sourcePoint" />
            <mxPoint x="1120" y="760" as="targetPoint" />
          </mxGeometry>
        </mxCell>
        <mxCell id="pguH2w8n3191PNCsji8N-313" value="" style="endArrow=none;html=1;rounded=0;" edge="1" parent="1">
          <mxGeometry width="50" height="50" relative="1" as="geometry">
            <mxPoint x="1120" y="840" as="sourcePoint" />
            <mxPoint x="1160" y="840" as="targetPoint" />
          </mxGeometry>
        </mxCell>
        <mxCell id="pguH2w8n3191PNCsji8N-314" value="" style="endArrow=none;html=1;rounded=0;" edge="1" parent="1">
          <mxGeometry width="50" height="50" relative="1" as="geometry">
            <mxPoint x="1160" y="760" as="sourcePoint" />
            <mxPoint x="1200" y="760" as="targetPoint" />
          </mxGeometry>
        </mxCell>
        <mxCell id="pguH2w8n3191PNCsji8N-315" value="" style="endArrow=none;html=1;rounded=0;" edge="1" parent="1">
          <mxGeometry width="50" height="50" relative="1" as="geometry">
            <mxPoint x="1400" y="760" as="sourcePoint" />
            <mxPoint x="1400" y="840" as="targetPoint" />
          </mxGeometry>
        </mxCell>
        <mxCell id="pguH2w8n3191PNCsji8N-316" value="" style="endArrow=none;html=1;rounded=0;" edge="1" parent="1">
          <mxGeometry width="50" height="50" relative="1" as="geometry">
            <mxPoint x="1400" y="760" as="sourcePoint" />
            <mxPoint x="1480" y="760" as="targetPoint" />
          </mxGeometry>
        </mxCell>
        <mxCell id="pguH2w8n3191PNCsji8N-317" value="" style="endArrow=none;html=1;rounded=0;" edge="1" parent="1">
          <mxGeometry width="50" height="50" relative="1" as="geometry">
            <mxPoint x="200" y="400" as="sourcePoint" />
            <mxPoint x="280" y="400" as="targetPoint" />
          </mxGeometry>
        </mxCell>
        <mxCell id="pguH2w8n3191PNCsji8N-318" value="" style="endArrow=none;html=1;rounded=0;" edge="1" parent="1">
          <mxGeometry width="50" height="50" relative="1" as="geometry">
            <mxPoint x="280" y="400" as="sourcePoint" />
            <mxPoint x="280" y="480" as="targetPoint" />
          </mxGeometry>
        </mxCell>
        <mxCell id="pguH2w8n3191PNCsji8N-319" value="" style="endArrow=none;html=1;rounded=0;" edge="1" parent="1">
          <mxGeometry width="50" height="50" relative="1" as="geometry">
            <mxPoint x="280" y="480" as="sourcePoint" />
            <mxPoint x="520" y="480" as="targetPoint" />
          </mxGeometry>
        </mxCell>
        <mxCell id="pguH2w8n3191PNCsji8N-320" value="" style="endArrow=none;html=1;rounded=0;" edge="1" parent="1">
          <mxGeometry width="50" height="50" relative="1" as="geometry">
            <mxPoint x="520" y="480" as="sourcePoint" />
            <mxPoint x="520" y="400" as="targetPoint" />
          </mxGeometry>
        </mxCell>
        <mxCell id="pguH2w8n3191PNCsji8N-321" value="" style="endArrow=none;html=1;rounded=0;" edge="1" parent="1">
          <mxGeometry width="50" height="50" relative="1" as="geometry">
            <mxPoint x="520" y="400" as="sourcePoint" />
            <mxPoint x="640" y="400" as="targetPoint" />
          </mxGeometry>
        </mxCell>
        <mxCell id="pguH2w8n3191PNCsji8N-322" value="" style="endArrow=none;html=1;rounded=0;" edge="1" parent="1">
          <mxGeometry width="50" height="50" relative="1" as="geometry">
            <mxPoint x="640" y="480" as="sourcePoint" />
            <mxPoint x="640" y="400" as="targetPoint" />
          </mxGeometry>
        </mxCell>
        <mxCell id="pguH2w8n3191PNCsji8N-323" value="" style="endArrow=none;html=1;rounded=0;" edge="1" parent="1">
          <mxGeometry width="50" height="50" relative="1" as="geometry">
            <mxPoint x="640" y="480" as="sourcePoint" />
            <mxPoint x="680" y="480" as="targetPoint" />
          </mxGeometry>
        </mxCell>
        <mxCell id="pguH2w8n3191PNCsji8N-324" value="" style="endArrow=none;html=1;rounded=0;" edge="1" parent="1">
          <mxGeometry width="50" height="50" relative="1" as="geometry">
            <mxPoint x="800" y="480" as="sourcePoint" />
            <mxPoint x="800" y="400" as="targetPoint" />
          </mxGeometry>
        </mxCell>
        <mxCell id="pguH2w8n3191PNCsji8N-325" value="" style="endArrow=none;html=1;rounded=0;" edge="1" parent="1">
          <mxGeometry width="50" height="50" relative="1" as="geometry">
            <mxPoint x="800" y="400" as="sourcePoint" />
            <mxPoint x="920" y="400" as="targetPoint" />
          </mxGeometry>
        </mxCell>
        <mxCell id="pguH2w8n3191PNCsji8N-326" value="" style="endArrow=none;html=1;rounded=0;" edge="1" parent="1">
          <mxGeometry width="50" height="50" relative="1" as="geometry">
            <mxPoint x="920" y="480" as="sourcePoint" />
            <mxPoint x="920" y="400" as="targetPoint" />
          </mxGeometry>
        </mxCell>
        <mxCell id="pguH2w8n3191PNCsji8N-327" value="" style="endArrow=none;html=1;rounded=0;" edge="1" parent="1">
          <mxGeometry width="50" height="50" relative="1" as="geometry">
            <mxPoint x="920" y="480" as="sourcePoint" />
            <mxPoint x="1080" y="480" as="targetPoint" />
          </mxGeometry>
        </mxCell>
        <mxCell id="pguH2w8n3191PNCsji8N-328" value="" style="endArrow=none;html=1;rounded=0;" edge="1" parent="1">
          <mxGeometry width="50" height="50" relative="1" as="geometry">
            <mxPoint x="1080" y="480" as="sourcePoint" />
            <mxPoint x="1080" y="400" as="targetPoint" />
          </mxGeometry>
        </mxCell>
        <mxCell id="pguH2w8n3191PNCsji8N-329" value="" style="endArrow=none;html=1;rounded=0;" edge="1" parent="1">
          <mxGeometry width="50" height="50" relative="1" as="geometry">
            <mxPoint x="1080" y="400" as="sourcePoint" />
            <mxPoint x="1240" y="400" as="targetPoint" />
          </mxGeometry>
        </mxCell>
        <mxCell id="pguH2w8n3191PNCsji8N-330" value="" style="endArrow=none;html=1;rounded=0;" edge="1" parent="1">
          <mxGeometry width="50" height="50" relative="1" as="geometry">
            <mxPoint x="1240" y="480" as="sourcePoint" />
            <mxPoint x="1240" y="400" as="targetPoint" />
          </mxGeometry>
        </mxCell>
        <mxCell id="pguH2w8n3191PNCsji8N-331" value="" style="endArrow=none;html=1;rounded=0;" edge="1" parent="1">
          <mxGeometry width="50" height="50" relative="1" as="geometry">
            <mxPoint x="1400" y="480" as="sourcePoint" />
            <mxPoint x="1240" y="480" as="targetPoint" />
          </mxGeometry>
        </mxCell>
        <mxCell id="pguH2w8n3191PNCsji8N-332" value="" style="endArrow=none;html=1;rounded=0;" edge="1" parent="1">
          <mxGeometry width="50" height="50" relative="1" as="geometry">
            <mxPoint x="1400" y="400" as="sourcePoint" />
            <mxPoint x="1400" y="480" as="targetPoint" />
          </mxGeometry>
        </mxCell>
        <mxCell id="pguH2w8n3191PNCsji8N-333" value="" style="endArrow=none;html=1;rounded=0;" edge="1" parent="1">
          <mxGeometry width="50" height="50" relative="1" as="geometry">
            <mxPoint x="1440" y="400" as="sourcePoint" />
            <mxPoint x="1400" y="400" as="targetPoint" />
          </mxGeometry>
        </mxCell>
        <mxCell id="pguH2w8n3191PNCsji8N-334" value="" style="endArrow=none;html=1;rounded=0;" edge="1" parent="1">
          <mxGeometry width="50" height="50" relative="1" as="geometry">
            <mxPoint x="1440" y="480" as="sourcePoint" />
            <mxPoint x="1440" y="400" as="targetPoint" />
          </mxGeometry>
        </mxCell>
        <mxCell id="pguH2w8n3191PNCsji8N-335" value="" style="endArrow=none;html=1;rounded=0;" edge="1" parent="1">
          <mxGeometry width="50" height="50" relative="1" as="geometry">
            <mxPoint x="1440" y="480" as="sourcePoint" />
            <mxPoint x="1480" y="480" as="targetPoint" />
          </mxGeometry>
        </mxCell>
        <mxCell id="pguH2w8n3191PNCsji8N-336" value="" style="endArrow=none;html=1;rounded=0;" edge="1" parent="1">
          <mxGeometry width="50" height="50" relative="1" as="geometry">
            <mxPoint x="680" y="400" as="sourcePoint" />
            <mxPoint x="760" y="400" as="targetPoint" />
          </mxGeometry>
        </mxCell>
        <mxCell id="pguH2w8n3191PNCsji8N-337" value="" style="endArrow=none;html=1;rounded=0;" edge="1" parent="1">
          <mxGeometry width="50" height="50" relative="1" as="geometry">
            <mxPoint x="680" y="480" as="sourcePoint" />
            <mxPoint x="680" y="400" as="targetPoint" />
          </mxGeometry>
        </mxCell>
        <mxCell id="pguH2w8n3191PNCsji8N-338" value="" style="endArrow=none;html=1;rounded=0;" edge="1" parent="1">
          <mxGeometry width="50" height="50" relative="1" as="geometry">
            <mxPoint x="760" y="480" as="sourcePoint" />
            <mxPoint x="760" y="400" as="targetPoint" />
          </mxGeometry>
        </mxCell>
        <mxCell id="pguH2w8n3191PNCsji8N-339" value="" style="endArrow=none;html=1;rounded=0;" edge="1" parent="1">
          <mxGeometry width="50" height="50" relative="1" as="geometry">
            <mxPoint x="760" y="480" as="sourcePoint" />
            <mxPoint x="800" y="480" as="targetPoint" />
          </mxGeometry>
        </mxCell>
        <mxCell id="pguH2w8n3191PNCsji8N-340" value="" style="endArrow=none;html=1;rounded=0;" edge="1" parent="1">
          <mxGeometry width="50" height="50" relative="1" as="geometry">
            <mxPoint x="200" y="640" as="sourcePoint" />
            <mxPoint x="240" y="640" as="targetPoint" />
          </mxGeometry>
        </mxCell>
        <mxCell id="pguH2w8n3191PNCsji8N-341" value="" style="endArrow=none;html=1;rounded=0;" edge="1" parent="1">
          <mxGeometry width="50" height="50" relative="1" as="geometry">
            <mxPoint x="240" y="720" as="sourcePoint" />
            <mxPoint x="240" y="640" as="targetPoint" />
          </mxGeometry>
        </mxCell>
        <mxCell id="pguH2w8n3191PNCsji8N-342" value="" style="endArrow=none;html=1;rounded=0;" edge="1" parent="1">
          <mxGeometry width="50" height="50" relative="1" as="geometry">
            <mxPoint x="240" y="720" as="sourcePoint" />
            <mxPoint x="280" y="720" as="targetPoint" />
          </mxGeometry>
        </mxCell>
        <mxCell id="pguH2w8n3191PNCsji8N-343" value="" style="endArrow=none;html=1;rounded=0;" edge="1" parent="1">
          <mxGeometry width="50" height="50" relative="1" as="geometry">
            <mxPoint x="280" y="680" as="sourcePoint" />
            <mxPoint x="280" y="720" as="targetPoint" />
          </mxGeometry>
        </mxCell>
        <mxCell id="pguH2w8n3191PNCsji8N-344" value="" style="endArrow=none;html=1;rounded=0;" edge="1" parent="1">
          <mxGeometry width="50" height="50" relative="1" as="geometry">
            <mxPoint x="280" y="680" as="sourcePoint" />
            <mxPoint x="520" y="680" as="targetPoint" />
          </mxGeometry>
        </mxCell>
        <mxCell id="pguH2w8n3191PNCsji8N-345" value="" style="endArrow=none;html=1;rounded=0;" edge="1" parent="1">
          <mxGeometry width="50" height="50" relative="1" as="geometry">
            <mxPoint x="520" y="640" as="sourcePoint" />
            <mxPoint x="520" y="680" as="targetPoint" />
          </mxGeometry>
        </mxCell>
        <mxCell id="pguH2w8n3191PNCsji8N-346" value="" style="endArrow=none;html=1;rounded=0;" edge="1" parent="1">
          <mxGeometry width="50" height="50" relative="1" as="geometry">
            <mxPoint x="520" y="640" as="sourcePoint" />
            <mxPoint x="560" y="640" as="targetPoint" />
          </mxGeometry>
        </mxCell>
        <mxCell id="pguH2w8n3191PNCsji8N-347" value="" style="endArrow=none;html=1;rounded=0;" edge="1" parent="1">
          <mxGeometry width="50" height="50" relative="1" as="geometry">
            <mxPoint x="560" y="640" as="sourcePoint" />
            <mxPoint x="560" y="720" as="targetPoint" />
          </mxGeometry>
        </mxCell>
        <mxCell id="pguH2w8n3191PNCsji8N-348" value="" style="endArrow=none;html=1;rounded=0;" edge="1" parent="1">
          <mxGeometry width="50" height="50" relative="1" as="geometry">
            <mxPoint x="560" y="720" as="sourcePoint" />
            <mxPoint x="600" y="720" as="targetPoint" />
          </mxGeometry>
        </mxCell>
        <mxCell id="pguH2w8n3191PNCsji8N-349" value="" style="endArrow=none;html=1;rounded=0;" edge="1" parent="1">
          <mxGeometry width="50" height="50" relative="1" as="geometry">
            <mxPoint x="600" y="720" as="sourcePoint" />
            <mxPoint x="600" y="640" as="targetPoint" />
          </mxGeometry>
        </mxCell>
        <mxCell id="pguH2w8n3191PNCsji8N-350" value="" style="endArrow=none;html=1;rounded=0;" edge="1" parent="1">
          <mxGeometry width="50" height="50" relative="1" as="geometry">
            <mxPoint x="640" y="640" as="sourcePoint" />
            <mxPoint x="640" y="680" as="targetPoint" />
          </mxGeometry>
        </mxCell>
        <mxCell id="pguH2w8n3191PNCsji8N-351" value="" style="endArrow=none;html=1;rounded=0;" edge="1" parent="1">
          <mxGeometry width="50" height="50" relative="1" as="geometry">
            <mxPoint x="640" y="680" as="sourcePoint" />
            <mxPoint x="680" y="680" as="targetPoint" />
          </mxGeometry>
        </mxCell>
        <mxCell id="pguH2w8n3191PNCsji8N-352" value="" style="endArrow=none;html=1;rounded=0;" edge="1" parent="1">
          <mxGeometry width="50" height="50" relative="1" as="geometry">
            <mxPoint x="840" y="680" as="sourcePoint" />
            <mxPoint x="840" y="640" as="targetPoint" />
          </mxGeometry>
        </mxCell>
        <mxCell id="pguH2w8n3191PNCsji8N-353" value="" style="endArrow=none;html=1;rounded=0;" edge="1" parent="1">
          <mxGeometry width="50" height="50" relative="1" as="geometry">
            <mxPoint x="880" y="640" as="sourcePoint" />
            <mxPoint x="840" y="640" as="targetPoint" />
          </mxGeometry>
        </mxCell>
        <mxCell id="pguH2w8n3191PNCsji8N-354" value="" style="endArrow=none;html=1;rounded=0;" edge="1" parent="1">
          <mxGeometry width="50" height="50" relative="1" as="geometry">
            <mxPoint x="880" y="720" as="sourcePoint" />
            <mxPoint x="880" y="640" as="targetPoint" />
          </mxGeometry>
        </mxCell>
        <mxCell id="pguH2w8n3191PNCsji8N-355" value="" style="endArrow=none;html=1;rounded=0;" edge="1" parent="1">
          <mxGeometry width="50" height="50" relative="1" as="geometry">
            <mxPoint x="920" y="720" as="sourcePoint" />
            <mxPoint x="880" y="720" as="targetPoint" />
          </mxGeometry>
        </mxCell>
        <mxCell id="pguH2w8n3191PNCsji8N-356" value="" style="endArrow=none;html=1;rounded=0;" edge="1" parent="1">
          <mxGeometry width="50" height="50" relative="1" as="geometry">
            <mxPoint x="920" y="680" as="sourcePoint" />
            <mxPoint x="920" y="720" as="targetPoint" />
          </mxGeometry>
        </mxCell>
        <mxCell id="pguH2w8n3191PNCsji8N-357" value="" style="endArrow=none;html=1;rounded=0;" edge="1" parent="1">
          <mxGeometry width="50" height="50" relative="1" as="geometry">
            <mxPoint x="1080" y="680" as="sourcePoint" />
            <mxPoint x="920" y="680" as="targetPoint" />
          </mxGeometry>
        </mxCell>
        <mxCell id="pguH2w8n3191PNCsji8N-358" value="" style="endArrow=none;html=1;rounded=0;" edge="1" parent="1">
          <mxGeometry width="50" height="50" relative="1" as="geometry">
            <mxPoint x="1160" y="720" as="sourcePoint" />
            <mxPoint x="1160" y="640" as="targetPoint" />
          </mxGeometry>
        </mxCell>
        <mxCell id="pguH2w8n3191PNCsji8N-359" value="" style="endArrow=none;html=1;rounded=0;" edge="1" parent="1">
          <mxGeometry width="50" height="50" relative="1" as="geometry">
            <mxPoint x="1200" y="640" as="sourcePoint" />
            <mxPoint x="1160" y="640" as="targetPoint" />
          </mxGeometry>
        </mxCell>
        <mxCell id="pguH2w8n3191PNCsji8N-360" value="" style="endArrow=none;html=1;rounded=0;" edge="1" parent="1">
          <mxGeometry width="50" height="50" relative="1" as="geometry">
            <mxPoint x="1200" y="640" as="sourcePoint" />
            <mxPoint x="1200" y="720" as="targetPoint" />
          </mxGeometry>
        </mxCell>
        <mxCell id="pguH2w8n3191PNCsji8N-361" value="" style="endArrow=none;html=1;rounded=0;" edge="1" parent="1">
          <mxGeometry width="50" height="50" relative="1" as="geometry">
            <mxPoint x="1200" y="720" as="sourcePoint" />
            <mxPoint x="1240" y="720" as="targetPoint" />
          </mxGeometry>
        </mxCell>
        <mxCell id="pguH2w8n3191PNCsji8N-362" value="" style="endArrow=none;html=1;rounded=0;" edge="1" parent="1">
          <mxGeometry width="50" height="50" relative="1" as="geometry">
            <mxPoint x="1240" y="720" as="sourcePoint" />
            <mxPoint x="1240" y="680" as="targetPoint" />
          </mxGeometry>
        </mxCell>
        <mxCell id="pguH2w8n3191PNCsji8N-363" value="" style="endArrow=none;html=1;rounded=0;" edge="1" parent="1">
          <mxGeometry width="50" height="50" relative="1" as="geometry">
            <mxPoint x="1400" y="680" as="sourcePoint" />
            <mxPoint x="1240" y="680" as="targetPoint" />
          </mxGeometry>
        </mxCell>
        <mxCell id="pguH2w8n3191PNCsji8N-364" value="" style="endArrow=none;html=1;rounded=0;" edge="1" parent="1">
          <mxGeometry width="50" height="50" relative="1" as="geometry">
            <mxPoint x="1400" y="640" as="sourcePoint" />
            <mxPoint x="1400" y="680" as="targetPoint" />
          </mxGeometry>
        </mxCell>
        <mxCell id="pguH2w8n3191PNCsji8N-365" value="" style="endArrow=none;html=1;rounded=0;" edge="1" parent="1">
          <mxGeometry width="50" height="50" relative="1" as="geometry">
            <mxPoint x="1480" y="680" as="sourcePoint" />
            <mxPoint x="1440" y="680" as="targetPoint" />
          </mxGeometry>
        </mxCell>
        <mxCell id="pguH2w8n3191PNCsji8N-366" value="" style="endArrow=none;html=1;rounded=0;" edge="1" parent="1">
          <mxGeometry width="50" height="50" relative="1" as="geometry">
            <mxPoint x="600" y="640" as="sourcePoint" />
            <mxPoint x="640" y="640" as="targetPoint" />
          </mxGeometry>
        </mxCell>
        <mxCell id="pguH2w8n3191PNCsji8N-367" value="" style="endArrow=none;html=1;rounded=0;" edge="1" parent="1">
          <mxGeometry width="50" height="50" relative="1" as="geometry">
            <mxPoint x="680" y="680" as="sourcePoint" />
            <mxPoint x="680" y="720" as="targetPoint" />
          </mxGeometry>
        </mxCell>
        <mxCell id="pguH2w8n3191PNCsji8N-368" value="" style="endArrow=none;html=1;rounded=0;" edge="1" parent="1">
          <mxGeometry width="50" height="50" relative="1" as="geometry">
            <mxPoint x="720" y="640" as="sourcePoint" />
            <mxPoint x="720" y="720" as="targetPoint" />
          </mxGeometry>
        </mxCell>
        <mxCell id="pguH2w8n3191PNCsji8N-369" value="" style="endArrow=none;html=1;rounded=0;" edge="1" parent="1">
          <mxGeometry width="50" height="50" relative="1" as="geometry">
            <mxPoint x="680" y="720" as="sourcePoint" />
            <mxPoint x="720" y="720" as="targetPoint" />
          </mxGeometry>
        </mxCell>
        <mxCell id="pguH2w8n3191PNCsji8N-370" value="" style="endArrow=none;html=1;rounded=0;" edge="1" parent="1">
          <mxGeometry width="50" height="50" relative="1" as="geometry">
            <mxPoint x="720" y="640" as="sourcePoint" />
            <mxPoint x="760" y="640" as="targetPoint" />
          </mxGeometry>
        </mxCell>
        <mxCell id="pguH2w8n3191PNCsji8N-371" value="" style="endArrow=none;html=1;rounded=0;" edge="1" parent="1">
          <mxGeometry width="50" height="50" relative="1" as="geometry">
            <mxPoint x="760" y="680" as="sourcePoint" />
            <mxPoint x="800" y="680" as="targetPoint" />
          </mxGeometry>
        </mxCell>
        <mxCell id="pguH2w8n3191PNCsji8N-372" value="" style="endArrow=none;html=1;rounded=0;" edge="1" parent="1">
          <mxGeometry width="50" height="50" relative="1" as="geometry">
            <mxPoint x="760" y="680" as="sourcePoint" />
            <mxPoint x="760" y="640" as="targetPoint" />
          </mxGeometry>
        </mxCell>
        <mxCell id="pguH2w8n3191PNCsji8N-373" value="" style="endArrow=none;html=1;rounded=0;" edge="1" parent="1">
          <mxGeometry width="50" height="50" relative="1" as="geometry">
            <mxPoint x="800" y="720" as="sourcePoint" />
            <mxPoint x="800" y="680" as="targetPoint" />
          </mxGeometry>
        </mxCell>
        <mxCell id="pguH2w8n3191PNCsji8N-374" value="" style="endArrow=none;html=1;rounded=0;" edge="1" parent="1">
          <mxGeometry width="50" height="50" relative="1" as="geometry">
            <mxPoint x="800" y="720" as="sourcePoint" />
            <mxPoint x="840" y="720" as="targetPoint" />
          </mxGeometry>
        </mxCell>
        <mxCell id="pguH2w8n3191PNCsji8N-375" value="" style="endArrow=none;html=1;rounded=0;" edge="1" parent="1">
          <mxGeometry width="50" height="50" relative="1" as="geometry">
            <mxPoint x="840" y="720" as="sourcePoint" />
            <mxPoint x="840" y="680" as="targetPoint" />
          </mxGeometry>
        </mxCell>
        <mxCell id="pguH2w8n3191PNCsji8N-376" value="" style="endArrow=none;html=1;rounded=0;" edge="1" parent="1">
          <mxGeometry width="50" height="50" relative="1" as="geometry">
            <mxPoint x="1080" y="680" as="sourcePoint" />
            <mxPoint x="1080" y="640" as="targetPoint" />
          </mxGeometry>
        </mxCell>
        <mxCell id="pguH2w8n3191PNCsji8N-377" value="" style="endArrow=none;html=1;rounded=0;" edge="1" parent="1">
          <mxGeometry width="50" height="50" relative="1" as="geometry">
            <mxPoint x="1120" y="720" as="sourcePoint" />
            <mxPoint x="1120" y="640" as="targetPoint" />
          </mxGeometry>
        </mxCell>
        <mxCell id="pguH2w8n3191PNCsji8N-378" value="" style="endArrow=none;html=1;rounded=0;" edge="1" parent="1">
          <mxGeometry width="50" height="50" relative="1" as="geometry">
            <mxPoint x="1120" y="720" as="sourcePoint" />
            <mxPoint x="1160" y="720" as="targetPoint" />
          </mxGeometry>
        </mxCell>
        <mxCell id="pguH2w8n3191PNCsji8N-379" value="" style="endArrow=none;html=1;rounded=0;" edge="1" parent="1">
          <mxGeometry width="50" height="50" relative="1" as="geometry">
            <mxPoint x="1080" y="640" as="sourcePoint" />
            <mxPoint x="1120" y="640" as="targetPoint" />
          </mxGeometry>
        </mxCell>
        <mxCell id="pguH2w8n3191PNCsji8N-380" value="" style="endArrow=none;html=1;rounded=0;" edge="1" parent="1">
          <mxGeometry width="50" height="50" relative="1" as="geometry">
            <mxPoint x="1440" y="640" as="sourcePoint" />
            <mxPoint x="1400" y="640" as="targetPoint" />
          </mxGeometry>
        </mxCell>
        <mxCell id="pguH2w8n3191PNCsji8N-381" value="" style="endArrow=none;html=1;rounded=0;" edge="1" parent="1">
          <mxGeometry width="50" height="50" relative="1" as="geometry">
            <mxPoint x="1440" y="640" as="sourcePoint" />
            <mxPoint x="1440" y="680" as="targetPoint" />
          </mxGeometry>
        </mxCell>
        <mxCell id="pguH2w8n3191PNCsji8N-382" value="" style="endArrow=none;html=1;rounded=0;strokeWidth=1;" edge="1" parent="1">
          <mxGeometry width="50" height="50" relative="1" as="geometry">
            <mxPoint x="200" y="600" as="sourcePoint" />
            <mxPoint x="220" y="600" as="targetPoint" />
          </mxGeometry>
        </mxCell>
        <mxCell id="pguH2w8n3191PNCsji8N-383" value="" style="endArrow=none;html=1;rounded=0;strokeWidth=1;" edge="1" parent="1">
          <mxGeometry width="50" height="50" relative="1" as="geometry">
            <mxPoint x="220" y="520" as="sourcePoint" />
            <mxPoint x="260" y="520" as="targetPoint" />
          </mxGeometry>
        </mxCell>
        <mxCell id="pguH2w8n3191PNCsji8N-384" value="" style="endArrow=none;html=1;rounded=0;strokeWidth=1;" edge="1" parent="1">
          <mxGeometry width="50" height="50" relative="1" as="geometry">
            <mxPoint x="260" y="520" as="sourcePoint" />
            <mxPoint x="260" y="600" as="targetPoint" />
          </mxGeometry>
        </mxCell>
        <mxCell id="pguH2w8n3191PNCsji8N-385" value="" style="endArrow=none;html=1;rounded=0;strokeWidth=1;" edge="1" parent="1">
          <mxGeometry width="50" height="50" relative="1" as="geometry">
            <mxPoint x="260" y="600" as="sourcePoint" />
            <mxPoint x="280" y="600" as="targetPoint" />
          </mxGeometry>
        </mxCell>
        <mxCell id="pguH2w8n3191PNCsji8N-386" value="" style="endArrow=none;html=1;rounded=0;strokeWidth=1;" edge="1" parent="1">
          <mxGeometry width="50" height="50" relative="1" as="geometry">
            <mxPoint x="280" y="600" as="sourcePoint" />
            <mxPoint x="280" y="520" as="targetPoint" />
          </mxGeometry>
        </mxCell>
        <mxCell id="pguH2w8n3191PNCsji8N-387" value="" style="endArrow=none;html=1;rounded=0;strokeWidth=1;" edge="1" parent="1">
          <mxGeometry width="50" height="50" relative="1" as="geometry">
            <mxPoint x="280" y="520" as="sourcePoint" />
            <mxPoint x="300" y="520" as="targetPoint" />
          </mxGeometry>
        </mxCell>
        <mxCell id="pguH2w8n3191PNCsji8N-388" value="" style="endArrow=none;html=1;rounded=0;strokeWidth=1;" edge="1" parent="1">
          <mxGeometry width="50" height="50" relative="1" as="geometry">
            <mxPoint x="299.5" y="520" as="sourcePoint" />
            <mxPoint x="299.5" y="600" as="targetPoint" />
          </mxGeometry>
        </mxCell>
        <mxCell id="pguH2w8n3191PNCsji8N-389" value="" style="endArrow=none;html=1;rounded=0;strokeWidth=1;" edge="1" parent="1">
          <mxGeometry width="50" height="50" relative="1" as="geometry">
            <mxPoint x="300" y="600" as="sourcePoint" />
            <mxPoint x="320" y="600" as="targetPoint" />
          </mxGeometry>
        </mxCell>
        <mxCell id="pguH2w8n3191PNCsji8N-390" value="" style="endArrow=none;html=1;rounded=0;strokeWidth=1;" edge="1" parent="1">
          <mxGeometry width="50" height="50" relative="1" as="geometry">
            <mxPoint x="320" y="600" as="sourcePoint" />
            <mxPoint x="320" y="520" as="targetPoint" />
          </mxGeometry>
        </mxCell>
        <mxCell id="pguH2w8n3191PNCsji8N-391" value="" style="endArrow=none;html=1;rounded=0;strokeWidth=1;" edge="1" parent="1">
          <mxGeometry width="50" height="50" relative="1" as="geometry">
            <mxPoint x="320" y="520" as="sourcePoint" />
            <mxPoint x="340" y="520" as="targetPoint" />
          </mxGeometry>
        </mxCell>
        <mxCell id="pguH2w8n3191PNCsji8N-392" value="" style="endArrow=none;html=1;rounded=0;strokeWidth=1;" edge="1" parent="1">
          <mxGeometry width="50" height="50" relative="1" as="geometry">
            <mxPoint x="339.5" y="520" as="sourcePoint" />
            <mxPoint x="339.5" y="600" as="targetPoint" />
          </mxGeometry>
        </mxCell>
        <mxCell id="pguH2w8n3191PNCsji8N-393" value="" style="endArrow=none;html=1;rounded=0;strokeWidth=1;" edge="1" parent="1">
          <mxGeometry width="50" height="50" relative="1" as="geometry">
            <mxPoint x="340" y="600" as="sourcePoint" />
            <mxPoint x="360" y="600" as="targetPoint" />
          </mxGeometry>
        </mxCell>
        <mxCell id="pguH2w8n3191PNCsji8N-394" value="" style="endArrow=none;html=1;rounded=0;strokeWidth=1;" edge="1" parent="1">
          <mxGeometry width="50" height="50" relative="1" as="geometry">
            <mxPoint x="360" y="600" as="sourcePoint" />
            <mxPoint x="360" y="520" as="targetPoint" />
          </mxGeometry>
        </mxCell>
        <mxCell id="pguH2w8n3191PNCsji8N-395" value="" style="endArrow=none;html=1;rounded=0;strokeWidth=1;" edge="1" parent="1">
          <mxGeometry width="50" height="50" relative="1" as="geometry">
            <mxPoint x="360" y="520" as="sourcePoint" />
            <mxPoint x="380" y="520" as="targetPoint" />
          </mxGeometry>
        </mxCell>
        <mxCell id="pguH2w8n3191PNCsji8N-396" value="" style="endArrow=none;html=1;rounded=0;strokeWidth=1;" edge="1" parent="1">
          <mxGeometry width="50" height="50" relative="1" as="geometry">
            <mxPoint x="379.5" y="520" as="sourcePoint" />
            <mxPoint x="379.5" y="600" as="targetPoint" />
          </mxGeometry>
        </mxCell>
        <mxCell id="pguH2w8n3191PNCsji8N-397" value="" style="endArrow=none;html=1;rounded=0;strokeWidth=1;" edge="1" parent="1">
          <mxGeometry width="50" height="50" relative="1" as="geometry">
            <mxPoint x="380" y="600" as="sourcePoint" />
            <mxPoint x="400" y="600" as="targetPoint" />
          </mxGeometry>
        </mxCell>
        <mxCell id="pguH2w8n3191PNCsji8N-398" value="" style="endArrow=none;html=1;rounded=0;strokeWidth=1;" edge="1" parent="1">
          <mxGeometry width="50" height="50" relative="1" as="geometry">
            <mxPoint x="400" y="600" as="sourcePoint" />
            <mxPoint x="400" y="520" as="targetPoint" />
          </mxGeometry>
        </mxCell>
        <mxCell id="pguH2w8n3191PNCsji8N-399" value="" style="endArrow=none;html=1;rounded=0;strokeWidth=1;" edge="1" parent="1">
          <mxGeometry width="50" height="50" relative="1" as="geometry">
            <mxPoint x="400" y="520" as="sourcePoint" />
            <mxPoint x="420" y="520" as="targetPoint" />
          </mxGeometry>
        </mxCell>
        <mxCell id="pguH2w8n3191PNCsji8N-400" value="" style="endArrow=none;html=1;rounded=0;strokeWidth=1;" edge="1" parent="1">
          <mxGeometry width="50" height="50" relative="1" as="geometry">
            <mxPoint x="419.5" y="520" as="sourcePoint" />
            <mxPoint x="419.5" y="600" as="targetPoint" />
          </mxGeometry>
        </mxCell>
        <mxCell id="pguH2w8n3191PNCsji8N-401" value="" style="endArrow=none;html=1;rounded=0;strokeWidth=1;" edge="1" parent="1">
          <mxGeometry width="50" height="50" relative="1" as="geometry">
            <mxPoint x="420" y="600" as="sourcePoint" />
            <mxPoint x="440" y="600" as="targetPoint" />
          </mxGeometry>
        </mxCell>
        <mxCell id="pguH2w8n3191PNCsji8N-402" value="" style="endArrow=none;html=1;rounded=0;strokeWidth=1;" edge="1" parent="1">
          <mxGeometry width="50" height="50" relative="1" as="geometry">
            <mxPoint x="440" y="600" as="sourcePoint" />
            <mxPoint x="440" y="520" as="targetPoint" />
          </mxGeometry>
        </mxCell>
        <mxCell id="pguH2w8n3191PNCsji8N-403" value="" style="endArrow=none;html=1;rounded=0;strokeWidth=1;" edge="1" parent="1">
          <mxGeometry width="50" height="50" relative="1" as="geometry">
            <mxPoint x="440" y="520" as="sourcePoint" />
            <mxPoint x="460" y="520" as="targetPoint" />
          </mxGeometry>
        </mxCell>
        <mxCell id="pguH2w8n3191PNCsji8N-404" value="" style="endArrow=none;html=1;rounded=0;strokeWidth=1;" edge="1" parent="1">
          <mxGeometry width="50" height="50" relative="1" as="geometry">
            <mxPoint x="459.5" y="520" as="sourcePoint" />
            <mxPoint x="459.5" y="600" as="targetPoint" />
          </mxGeometry>
        </mxCell>
        <mxCell id="pguH2w8n3191PNCsji8N-405" value="" style="endArrow=none;html=1;rounded=0;strokeWidth=1;" edge="1" parent="1">
          <mxGeometry width="50" height="50" relative="1" as="geometry">
            <mxPoint x="460" y="600" as="sourcePoint" />
            <mxPoint x="480" y="600" as="targetPoint" />
          </mxGeometry>
        </mxCell>
        <mxCell id="pguH2w8n3191PNCsji8N-406" value="" style="endArrow=none;html=1;rounded=0;strokeWidth=1;" edge="1" parent="1">
          <mxGeometry width="50" height="50" relative="1" as="geometry">
            <mxPoint x="480" y="600" as="sourcePoint" />
            <mxPoint x="480" y="520" as="targetPoint" />
          </mxGeometry>
        </mxCell>
        <mxCell id="pguH2w8n3191PNCsji8N-407" value="" style="endArrow=none;html=1;rounded=0;strokeWidth=1;" edge="1" parent="1">
          <mxGeometry width="50" height="50" relative="1" as="geometry">
            <mxPoint x="500" y="520" as="sourcePoint" />
            <mxPoint x="480" y="520" as="targetPoint" />
          </mxGeometry>
        </mxCell>
        <mxCell id="pguH2w8n3191PNCsji8N-408" value="" style="endArrow=none;html=1;rounded=0;strokeWidth=1;" edge="1" parent="1">
          <mxGeometry width="50" height="50" relative="1" as="geometry">
            <mxPoint x="499.5" y="600" as="sourcePoint" />
            <mxPoint x="499.5" y="520" as="targetPoint" />
          </mxGeometry>
        </mxCell>
        <mxCell id="pguH2w8n3191PNCsji8N-409" value="" style="endArrow=none;html=1;rounded=0;strokeWidth=1;" edge="1" parent="1">
          <mxGeometry width="50" height="50" relative="1" as="geometry">
            <mxPoint x="540" y="600" as="sourcePoint" />
            <mxPoint x="500" y="600" as="targetPoint" />
          </mxGeometry>
        </mxCell>
        <mxCell id="pguH2w8n3191PNCsji8N-410" value="" style="endArrow=none;html=1;rounded=0;strokeWidth=1;" edge="1" parent="1">
          <mxGeometry width="50" height="50" relative="1" as="geometry">
            <mxPoint x="539.5" y="600" as="sourcePoint" />
            <mxPoint x="539.5" y="520" as="targetPoint" />
          </mxGeometry>
        </mxCell>
        <mxCell id="pguH2w8n3191PNCsji8N-411" value="" style="endArrow=none;html=1;rounded=0;strokeWidth=1;" edge="1" parent="1">
          <mxGeometry width="50" height="50" relative="1" as="geometry">
            <mxPoint x="580" y="520" as="sourcePoint" />
            <mxPoint x="540" y="520" as="targetPoint" />
          </mxGeometry>
        </mxCell>
        <mxCell id="pguH2w8n3191PNCsji8N-412" value="" style="endArrow=none;html=1;rounded=0;strokeWidth=1;" edge="1" parent="1">
          <mxGeometry width="50" height="50" relative="1" as="geometry">
            <mxPoint x="580" y="600" as="sourcePoint" />
            <mxPoint x="580" y="520" as="targetPoint" />
          </mxGeometry>
        </mxCell>
        <mxCell id="pguH2w8n3191PNCsji8N-413" value="" style="endArrow=none;html=1;rounded=0;strokeWidth=1;" edge="1" parent="1">
          <mxGeometry width="50" height="50" relative="1" as="geometry">
            <mxPoint x="580" y="600" as="sourcePoint" />
            <mxPoint x="620" y="600" as="targetPoint" />
          </mxGeometry>
        </mxCell>
        <mxCell id="pguH2w8n3191PNCsji8N-414" value="" style="endArrow=none;html=1;rounded=0;strokeWidth=1;" edge="1" parent="1">
          <mxGeometry width="50" height="50" relative="1" as="geometry">
            <mxPoint x="619.5" y="600" as="sourcePoint" />
            <mxPoint x="619.5" y="520" as="targetPoint" />
          </mxGeometry>
        </mxCell>
        <mxCell id="pguH2w8n3191PNCsji8N-415" value="" style="endArrow=none;html=1;rounded=0;strokeWidth=1;" edge="1" parent="1">
          <mxGeometry width="50" height="50" relative="1" as="geometry">
            <mxPoint x="620" y="520" as="sourcePoint" />
            <mxPoint x="640" y="520" as="targetPoint" />
          </mxGeometry>
        </mxCell>
        <mxCell id="pguH2w8n3191PNCsji8N-416" value="" style="endArrow=none;html=1;rounded=0;strokeWidth=1;" edge="1" parent="1">
          <mxGeometry width="50" height="50" relative="1" as="geometry">
            <mxPoint x="640" y="600" as="sourcePoint" />
            <mxPoint x="640" y="520" as="targetPoint" />
          </mxGeometry>
        </mxCell>
        <mxCell id="pguH2w8n3191PNCsji8N-417" value="" style="endArrow=none;html=1;rounded=0;strokeWidth=1;" edge="1" parent="1">
          <mxGeometry width="50" height="50" relative="1" as="geometry">
            <mxPoint x="640" y="600" as="sourcePoint" />
            <mxPoint x="660" y="600" as="targetPoint" />
          </mxGeometry>
        </mxCell>
        <mxCell id="pguH2w8n3191PNCsji8N-418" value="" style="endArrow=none;html=1;rounded=0;strokeWidth=1;" edge="1" parent="1">
          <mxGeometry width="50" height="50" relative="1" as="geometry">
            <mxPoint x="660" y="600" as="sourcePoint" />
            <mxPoint x="660" y="520" as="targetPoint" />
          </mxGeometry>
        </mxCell>
        <mxCell id="pguH2w8n3191PNCsji8N-419" value="" style="endArrow=none;html=1;rounded=0;strokeWidth=1;" edge="1" parent="1">
          <mxGeometry width="50" height="50" relative="1" as="geometry">
            <mxPoint x="660" y="520" as="sourcePoint" />
            <mxPoint x="680" y="520" as="targetPoint" />
          </mxGeometry>
        </mxCell>
        <mxCell id="pguH2w8n3191PNCsji8N-420" value="" style="endArrow=none;html=1;rounded=0;strokeWidth=1;" edge="1" parent="1">
          <mxGeometry width="50" height="50" relative="1" as="geometry">
            <mxPoint x="680" y="520" as="sourcePoint" />
            <mxPoint x="700" y="520" as="targetPoint" />
            <Array as="points">
              <mxPoint x="690" y="520" />
            </Array>
          </mxGeometry>
        </mxCell>
        <mxCell id="pguH2w8n3191PNCsji8N-421" value="" style="endArrow=none;html=1;rounded=0;strokeWidth=1;" edge="1" parent="1">
          <mxGeometry width="50" height="50" relative="1" as="geometry">
            <mxPoint x="700" y="600" as="sourcePoint" />
            <mxPoint x="700" y="520" as="targetPoint" />
          </mxGeometry>
        </mxCell>
        <mxCell id="pguH2w8n3191PNCsji8N-422" value="" style="endArrow=none;html=1;rounded=0;strokeWidth=1;" edge="1" parent="1">
          <mxGeometry width="50" height="50" relative="1" as="geometry">
            <mxPoint x="700" y="600" as="sourcePoint" />
            <mxPoint x="740" y="600" as="targetPoint" />
          </mxGeometry>
        </mxCell>
        <mxCell id="pguH2w8n3191PNCsji8N-423" value="" style="endArrow=none;html=1;rounded=0;strokeWidth=1;" edge="1" parent="1">
          <mxGeometry width="50" height="50" relative="1" as="geometry">
            <mxPoint x="720" y="600" as="sourcePoint" />
            <mxPoint x="720" y="600" as="targetPoint" />
          </mxGeometry>
        </mxCell>
        <mxCell id="pguH2w8n3191PNCsji8N-424" value="" style="endArrow=none;html=1;rounded=0;strokeWidth=1;" edge="1" parent="1">
          <mxGeometry width="50" height="50" relative="1" as="geometry">
            <mxPoint x="739.5" y="520" as="sourcePoint" />
            <mxPoint x="739.5" y="600" as="targetPoint" />
          </mxGeometry>
        </mxCell>
        <mxCell id="pguH2w8n3191PNCsji8N-425" value="" style="endArrow=none;html=1;rounded=0;strokeWidth=1;" edge="1" parent="1">
          <mxGeometry width="50" height="50" relative="1" as="geometry">
            <mxPoint x="740" y="520" as="sourcePoint" />
            <mxPoint x="760" y="520" as="targetPoint" />
          </mxGeometry>
        </mxCell>
        <mxCell id="pguH2w8n3191PNCsji8N-426" value="" style="endArrow=none;html=1;rounded=0;strokeWidth=1;" edge="1" parent="1">
          <mxGeometry width="50" height="50" relative="1" as="geometry">
            <mxPoint x="760" y="600" as="sourcePoint" />
            <mxPoint x="760" y="520" as="targetPoint" />
          </mxGeometry>
        </mxCell>
        <mxCell id="pguH2w8n3191PNCsji8N-427" value="" style="endArrow=none;html=1;rounded=0;strokeWidth=1;" edge="1" parent="1">
          <mxGeometry width="50" height="50" relative="1" as="geometry">
            <mxPoint x="800" y="520" as="sourcePoint" />
            <mxPoint x="780" y="520" as="targetPoint" />
          </mxGeometry>
        </mxCell>
        <mxCell id="pguH2w8n3191PNCsji8N-428" value="" style="endArrow=none;html=1;rounded=0;strokeWidth=1;" edge="1" parent="1">
          <mxGeometry width="50" height="50" relative="1" as="geometry">
            <mxPoint x="820" y="600" as="sourcePoint" />
            <mxPoint x="820" y="520" as="targetPoint" />
          </mxGeometry>
        </mxCell>
        <mxCell id="pguH2w8n3191PNCsji8N-429" value="" style="endArrow=none;html=1;rounded=0;strokeWidth=1;" edge="1" parent="1">
          <mxGeometry width="50" height="50" relative="1" as="geometry">
            <mxPoint x="800" y="520" as="sourcePoint" />
            <mxPoint x="820" y="520" as="targetPoint" />
          </mxGeometry>
        </mxCell>
        <mxCell id="pguH2w8n3191PNCsji8N-430" value="" style="endArrow=none;html=1;rounded=0;strokeWidth=1;" edge="1" parent="1">
          <mxGeometry width="50" height="50" relative="1" as="geometry">
            <mxPoint x="900" y="520" as="sourcePoint" />
            <mxPoint x="860" y="520" as="targetPoint" />
          </mxGeometry>
        </mxCell>
        <mxCell id="pguH2w8n3191PNCsji8N-431" value="" style="endArrow=none;html=1;rounded=0;strokeWidth=1;" edge="1" parent="1">
          <mxGeometry width="50" height="50" relative="1" as="geometry">
            <mxPoint x="900" y="520" as="sourcePoint" />
            <mxPoint x="900" y="600" as="targetPoint" />
          </mxGeometry>
        </mxCell>
        <mxCell id="pguH2w8n3191PNCsji8N-432" value="" style="endArrow=none;html=1;rounded=0;strokeWidth=1;" edge="1" parent="1">
          <mxGeometry width="50" height="50" relative="1" as="geometry">
            <mxPoint x="920" y="600" as="sourcePoint" />
            <mxPoint x="900" y="600" as="targetPoint" />
          </mxGeometry>
        </mxCell>
        <mxCell id="pguH2w8n3191PNCsji8N-433" value="" style="endArrow=none;html=1;rounded=0;strokeWidth=1;" edge="1" parent="1">
          <mxGeometry width="50" height="50" relative="1" as="geometry">
            <mxPoint x="920" y="520" as="sourcePoint" />
            <mxPoint x="920" y="600" as="targetPoint" />
          </mxGeometry>
        </mxCell>
        <mxCell id="pguH2w8n3191PNCsji8N-434" value="" style="endArrow=none;html=1;rounded=0;strokeWidth=1;" edge="1" parent="1">
          <mxGeometry width="50" height="50" relative="1" as="geometry">
            <mxPoint x="940" y="520" as="sourcePoint" />
            <mxPoint x="920" y="520" as="targetPoint" />
          </mxGeometry>
        </mxCell>
        <mxCell id="pguH2w8n3191PNCsji8N-435" value="" style="endArrow=none;html=1;rounded=0;strokeWidth=1;" edge="1" parent="1">
          <mxGeometry width="50" height="50" relative="1" as="geometry">
            <mxPoint x="939.5" y="520" as="sourcePoint" />
            <mxPoint x="939.5" y="600" as="targetPoint" />
          </mxGeometry>
        </mxCell>
        <mxCell id="pguH2w8n3191PNCsji8N-436" value="" style="endArrow=none;html=1;rounded=0;strokeWidth=1;" edge="1" parent="1">
          <mxGeometry width="50" height="50" relative="1" as="geometry">
            <mxPoint x="940" y="600" as="sourcePoint" />
            <mxPoint x="960" y="600" as="targetPoint" />
          </mxGeometry>
        </mxCell>
        <mxCell id="pguH2w8n3191PNCsji8N-437" value="" style="endArrow=none;html=1;rounded=0;strokeWidth=1;" edge="1" parent="1">
          <mxGeometry width="50" height="50" relative="1" as="geometry">
            <mxPoint x="1000" y="520" as="sourcePoint" />
            <mxPoint x="1000" y="600" as="targetPoint" />
          </mxGeometry>
        </mxCell>
        <mxCell id="pguH2w8n3191PNCsji8N-438" value="" style="endArrow=none;html=1;rounded=0;strokeWidth=1;" edge="1" parent="1">
          <mxGeometry width="50" height="50" relative="1" as="geometry">
            <mxPoint x="1040" y="600" as="sourcePoint" />
            <mxPoint x="1020" y="600" as="targetPoint" />
          </mxGeometry>
        </mxCell>
        <mxCell id="pguH2w8n3191PNCsji8N-439" value="" style="endArrow=none;html=1;rounded=0;strokeWidth=1;" edge="1" parent="1">
          <mxGeometry width="50" height="50" relative="1" as="geometry">
            <mxPoint x="1019.5" y="520" as="sourcePoint" />
            <mxPoint x="1019.5" y="600" as="targetPoint" />
          </mxGeometry>
        </mxCell>
        <mxCell id="pguH2w8n3191PNCsji8N-440" value="" style="endArrow=none;html=1;rounded=0;strokeWidth=1;" edge="1" parent="1">
          <mxGeometry width="50" height="50" relative="1" as="geometry">
            <mxPoint x="1060" y="520" as="sourcePoint" />
            <mxPoint x="1040" y="520" as="targetPoint" />
          </mxGeometry>
        </mxCell>
        <mxCell id="pguH2w8n3191PNCsji8N-441" value="" style="endArrow=none;html=1;rounded=0;strokeWidth=1;" edge="1" parent="1">
          <mxGeometry width="50" height="50" relative="1" as="geometry">
            <mxPoint x="1040" y="520" as="sourcePoint" />
            <mxPoint x="1040" y="600" as="targetPoint" />
          </mxGeometry>
        </mxCell>
        <mxCell id="pguH2w8n3191PNCsji8N-442" value="" style="endArrow=none;html=1;rounded=0;strokeWidth=1;" edge="1" parent="1">
          <mxGeometry width="50" height="50" relative="1" as="geometry">
            <mxPoint x="1060" y="600" as="sourcePoint" />
            <mxPoint x="1100" y="600" as="targetPoint" />
          </mxGeometry>
        </mxCell>
        <mxCell id="pguH2w8n3191PNCsji8N-443" value="" style="endArrow=none;html=1;rounded=0;strokeWidth=1;" edge="1" parent="1">
          <mxGeometry width="50" height="50" relative="1" as="geometry">
            <mxPoint x="1100" y="520" as="sourcePoint" />
            <mxPoint x="1100" y="600" as="targetPoint" />
          </mxGeometry>
        </mxCell>
        <mxCell id="pguH2w8n3191PNCsji8N-444" value="" style="endArrow=none;html=1;rounded=0;strokeWidth=1;" edge="1" parent="1">
          <mxGeometry width="50" height="50" relative="1" as="geometry">
            <mxPoint x="1140" y="520" as="sourcePoint" />
            <mxPoint x="1100" y="520" as="targetPoint" />
          </mxGeometry>
        </mxCell>
        <mxCell id="pguH2w8n3191PNCsji8N-445" value="" style="endArrow=none;html=1;rounded=0;strokeWidth=1;" edge="1" parent="1">
          <mxGeometry width="50" height="50" relative="1" as="geometry">
            <mxPoint x="1140" y="520" as="sourcePoint" />
            <mxPoint x="1140" y="600" as="targetPoint" />
          </mxGeometry>
        </mxCell>
        <mxCell id="pguH2w8n3191PNCsji8N-446" value="" style="endArrow=none;html=1;rounded=0;strokeWidth=1;" edge="1" parent="1">
          <mxGeometry width="50" height="50" relative="1" as="geometry">
            <mxPoint x="1180" y="520" as="sourcePoint" />
            <mxPoint x="1180" y="600" as="targetPoint" />
          </mxGeometry>
        </mxCell>
        <mxCell id="pguH2w8n3191PNCsji8N-447" value="" style="endArrow=none;html=1;rounded=0;strokeWidth=1;" edge="1" parent="1">
          <mxGeometry width="50" height="50" relative="1" as="geometry">
            <mxPoint x="1180" y="520" as="sourcePoint" />
            <mxPoint x="1220" y="520" as="targetPoint" />
          </mxGeometry>
        </mxCell>
        <mxCell id="pguH2w8n3191PNCsji8N-448" value="" style="endArrow=none;html=1;rounded=0;strokeWidth=1;" edge="1" parent="1">
          <mxGeometry width="50" height="50" relative="1" as="geometry">
            <mxPoint x="1220" y="520" as="sourcePoint" />
            <mxPoint x="1220" y="600" as="targetPoint" />
          </mxGeometry>
        </mxCell>
        <mxCell id="pguH2w8n3191PNCsji8N-449" value="" style="endArrow=none;html=1;rounded=0;strokeWidth=1;" edge="1" parent="1">
          <mxGeometry width="50" height="50" relative="1" as="geometry">
            <mxPoint x="1240" y="600" as="sourcePoint" />
            <mxPoint x="1220" y="600" as="targetPoint" />
          </mxGeometry>
        </mxCell>
        <mxCell id="pguH2w8n3191PNCsji8N-450" value="" style="endArrow=none;html=1;rounded=0;strokeWidth=1;" edge="1" parent="1">
          <mxGeometry width="50" height="50" relative="1" as="geometry">
            <mxPoint x="1240" y="520" as="sourcePoint" />
            <mxPoint x="1240" y="600" as="targetPoint" />
          </mxGeometry>
        </mxCell>
        <mxCell id="pguH2w8n3191PNCsji8N-451" value="" style="endArrow=none;html=1;rounded=0;strokeWidth=1;" edge="1" parent="1">
          <mxGeometry width="50" height="50" relative="1" as="geometry">
            <mxPoint x="1260" y="520" as="sourcePoint" />
            <mxPoint x="1240" y="520" as="targetPoint" />
          </mxGeometry>
        </mxCell>
        <mxCell id="pguH2w8n3191PNCsji8N-452" value="" style="endArrow=none;html=1;rounded=0;strokeWidth=1;" edge="1" parent="1">
          <mxGeometry width="50" height="50" relative="1" as="geometry">
            <mxPoint x="1259.5" y="520" as="sourcePoint" />
            <mxPoint x="1259.5" y="600" as="targetPoint" />
          </mxGeometry>
        </mxCell>
        <mxCell id="pguH2w8n3191PNCsji8N-453" value="" style="endArrow=none;html=1;rounded=0;strokeWidth=1;" edge="1" parent="1">
          <mxGeometry width="50" height="50" relative="1" as="geometry">
            <mxPoint x="1280" y="600" as="sourcePoint" />
            <mxPoint x="1260" y="600" as="targetPoint" />
          </mxGeometry>
        </mxCell>
        <mxCell id="pguH2w8n3191PNCsji8N-454" value="" style="endArrow=none;html=1;rounded=0;strokeWidth=1;" edge="1" parent="1">
          <mxGeometry width="50" height="50" relative="1" as="geometry">
            <mxPoint x="1280" y="520" as="sourcePoint" />
            <mxPoint x="1280" y="600" as="targetPoint" />
          </mxGeometry>
        </mxCell>
        <mxCell id="pguH2w8n3191PNCsji8N-455" value="" style="endArrow=none;html=1;rounded=0;strokeWidth=1;" edge="1" parent="1">
          <mxGeometry width="50" height="50" relative="1" as="geometry">
            <mxPoint x="1300" y="520" as="sourcePoint" />
            <mxPoint x="1280" y="520" as="targetPoint" />
          </mxGeometry>
        </mxCell>
        <mxCell id="pguH2w8n3191PNCsji8N-456" value="" style="endArrow=none;html=1;rounded=0;strokeWidth=1;" edge="1" parent="1">
          <mxGeometry width="50" height="50" relative="1" as="geometry">
            <mxPoint x="1299.5" y="600" as="sourcePoint" />
            <mxPoint x="1299.5" y="520" as="targetPoint" />
          </mxGeometry>
        </mxCell>
        <mxCell id="pguH2w8n3191PNCsji8N-457" value="" style="endArrow=none;html=1;rounded=0;strokeWidth=1;" edge="1" parent="1">
          <mxGeometry width="50" height="50" relative="1" as="geometry">
            <mxPoint x="1320" y="600" as="sourcePoint" />
            <mxPoint x="1320" y="520" as="targetPoint" />
          </mxGeometry>
        </mxCell>
        <mxCell id="pguH2w8n3191PNCsji8N-458" value="" style="endArrow=none;html=1;rounded=0;strokeWidth=1;" edge="1" parent="1">
          <mxGeometry width="50" height="50" relative="1" as="geometry">
            <mxPoint x="1320" y="600" as="sourcePoint" />
            <mxPoint x="1300" y="600" as="targetPoint" />
          </mxGeometry>
        </mxCell>
        <mxCell id="pguH2w8n3191PNCsji8N-459" value="" style="endArrow=none;html=1;rounded=0;strokeWidth=1;" edge="1" parent="1">
          <mxGeometry width="50" height="50" relative="1" as="geometry">
            <mxPoint x="1320" y="520" as="sourcePoint" />
            <mxPoint x="1340" y="520" as="targetPoint" />
          </mxGeometry>
        </mxCell>
        <mxCell id="pguH2w8n3191PNCsji8N-460" value="" style="endArrow=none;html=1;rounded=0;strokeWidth=1;" edge="1" parent="1">
          <mxGeometry width="50" height="50" relative="1" as="geometry">
            <mxPoint x="1339.5" y="600" as="sourcePoint" />
            <mxPoint x="1339.5" y="520" as="targetPoint" />
          </mxGeometry>
        </mxCell>
        <mxCell id="pguH2w8n3191PNCsji8N-461" value="" style="endArrow=none;html=1;rounded=0;strokeWidth=1;" edge="1" parent="1">
          <mxGeometry width="50" height="50" relative="1" as="geometry">
            <mxPoint x="1420" y="600" as="sourcePoint" />
            <mxPoint x="1380" y="600" as="targetPoint" />
          </mxGeometry>
        </mxCell>
        <mxCell id="pguH2w8n3191PNCsji8N-462" value="" style="endArrow=none;html=1;rounded=0;strokeWidth=1;" edge="1" parent="1">
          <mxGeometry width="50" height="50" relative="1" as="geometry">
            <mxPoint x="1379.5" y="520" as="sourcePoint" />
            <mxPoint x="1379.5" y="600" as="targetPoint" />
          </mxGeometry>
        </mxCell>
        <mxCell id="pguH2w8n3191PNCsji8N-463" value="" style="endArrow=none;html=1;rounded=0;strokeWidth=1;" edge="1" parent="1">
          <mxGeometry width="50" height="50" relative="1" as="geometry">
            <mxPoint x="1420" y="520" as="sourcePoint" />
            <mxPoint x="1440" y="520" as="targetPoint" />
          </mxGeometry>
        </mxCell>
        <mxCell id="pguH2w8n3191PNCsji8N-464" value="" style="endArrow=none;html=1;rounded=0;strokeWidth=1;" edge="1" parent="1">
          <mxGeometry width="50" height="50" relative="1" as="geometry">
            <mxPoint x="1419.5" y="600" as="sourcePoint" />
            <mxPoint x="1419.5" y="520" as="targetPoint" />
          </mxGeometry>
        </mxCell>
        <mxCell id="pguH2w8n3191PNCsji8N-465" value="" style="endArrow=none;html=1;rounded=0;strokeWidth=1;" edge="1" parent="1">
          <mxGeometry width="50" height="50" relative="1" as="geometry">
            <mxPoint x="1440" y="600" as="sourcePoint" />
            <mxPoint x="1460" y="600" as="targetPoint" />
          </mxGeometry>
        </mxCell>
        <mxCell id="pguH2w8n3191PNCsji8N-466" value="" style="endArrow=none;html=1;rounded=0;strokeWidth=1;" edge="1" parent="1">
          <mxGeometry width="50" height="50" relative="1" as="geometry">
            <mxPoint x="820" y="600" as="sourcePoint" />
            <mxPoint x="860" y="600" as="targetPoint" />
          </mxGeometry>
        </mxCell>
        <mxCell id="pguH2w8n3191PNCsji8N-467" value="" style="endArrow=none;html=1;rounded=0;strokeWidth=1;" edge="1" parent="1">
          <mxGeometry width="50" height="50" relative="1" as="geometry">
            <mxPoint x="960" y="520" as="sourcePoint" />
            <mxPoint x="960" y="600" as="targetPoint" />
          </mxGeometry>
        </mxCell>
        <mxCell id="pguH2w8n3191PNCsji8N-468" value="" style="endArrow=none;html=1;rounded=0;strokeWidth=1;" edge="1" parent="1">
          <mxGeometry width="50" height="50" relative="1" as="geometry">
            <mxPoint x="960" y="520" as="sourcePoint" />
            <mxPoint x="980" y="520" as="targetPoint" />
          </mxGeometry>
        </mxCell>
        <mxCell id="pguH2w8n3191PNCsji8N-469" value="" style="endArrow=none;html=1;rounded=0;strokeWidth=1;" edge="1" parent="1">
          <mxGeometry width="50" height="50" relative="1" as="geometry">
            <mxPoint x="979.5" y="520" as="sourcePoint" />
            <mxPoint x="979.5" y="600" as="targetPoint" />
          </mxGeometry>
        </mxCell>
        <mxCell id="pguH2w8n3191PNCsji8N-470" value="" style="endArrow=none;html=1;rounded=0;strokeWidth=1;" edge="1" parent="1">
          <mxGeometry width="50" height="50" relative="1" as="geometry">
            <mxPoint x="1000" y="520" as="sourcePoint" />
            <mxPoint x="1020" y="520" as="targetPoint" />
          </mxGeometry>
        </mxCell>
        <mxCell id="pguH2w8n3191PNCsji8N-471" value="" style="endArrow=none;html=1;rounded=0;strokeWidth=1;" edge="1" parent="1">
          <mxGeometry width="50" height="50" relative="1" as="geometry">
            <mxPoint x="1180" y="600" as="sourcePoint" />
            <mxPoint x="1140" y="600" as="targetPoint" />
          </mxGeometry>
        </mxCell>
        <mxCell id="pguH2w8n3191PNCsji8N-472" value="" style="endArrow=none;html=1;rounded=0;strokeWidth=1;" edge="1" parent="1">
          <mxGeometry width="50" height="50" relative="1" as="geometry">
            <mxPoint x="1381" y="520" as="sourcePoint" />
            <mxPoint x="1361" y="520" as="targetPoint" />
          </mxGeometry>
        </mxCell>
        <mxCell id="pguH2w8n3191PNCsji8N-473" value="" style="endArrow=none;html=1;rounded=0;strokeWidth=1;" edge="1" parent="1">
          <mxGeometry width="50" height="50" relative="1" as="geometry">
            <mxPoint x="1360" y="600" as="sourcePoint" />
            <mxPoint x="1340" y="600" as="targetPoint" />
          </mxGeometry>
        </mxCell>
        <mxCell id="pguH2w8n3191PNCsji8N-474" value="" style="endArrow=none;html=1;rounded=0;strokeWidth=1;" edge="1" parent="1">
          <mxGeometry width="50" height="50" relative="1" as="geometry">
            <mxPoint x="1361" y="600" as="sourcePoint" />
            <mxPoint x="1361" y="520" as="targetPoint" />
          </mxGeometry>
        </mxCell>
        <mxCell id="pguH2w8n3191PNCsji8N-475" value="" style="endArrow=none;html=1;rounded=0;strokeWidth=1;" edge="1" parent="1">
          <mxGeometry width="50" height="50" relative="1" as="geometry">
            <mxPoint x="219.5" y="600" as="sourcePoint" />
            <mxPoint x="219.5" y="520" as="targetPoint" />
          </mxGeometry>
        </mxCell>
        <mxCell id="pguH2w8n3191PNCsji8N-476" value="" style="endArrow=none;html=1;rounded=0;strokeWidth=1;" edge="1" parent="1">
          <mxGeometry width="50" height="50" relative="1" as="geometry">
            <mxPoint x="860" y="520" as="sourcePoint" />
            <mxPoint x="860" y="600" as="targetPoint" />
          </mxGeometry>
        </mxCell>
        <mxCell id="pguH2w8n3191PNCsji8N-477" value="" style="endArrow=none;html=1;rounded=0;strokeWidth=1;" edge="1" parent="1">
          <mxGeometry width="50" height="50" relative="1" as="geometry">
            <mxPoint x="980" y="600" as="sourcePoint" />
            <mxPoint x="1000" y="600" as="targetPoint" />
          </mxGeometry>
        </mxCell>
        <mxCell id="pguH2w8n3191PNCsji8N-478" value="" style="endArrow=none;html=1;rounded=0;strokeWidth=1;" edge="1" parent="1">
          <mxGeometry width="50" height="50" relative="1" as="geometry">
            <mxPoint x="1059.5" y="520" as="sourcePoint" />
            <mxPoint x="1059.5" y="600" as="targetPoint" />
          </mxGeometry>
        </mxCell>
        <mxCell id="pguH2w8n3191PNCsji8N-479" value="" style="endArrow=none;html=1;rounded=0;strokeWidth=1;" edge="1" parent="1">
          <mxGeometry width="50" height="50" relative="1" as="geometry">
            <mxPoint x="1440" y="600" as="sourcePoint" />
            <mxPoint x="1440" y="520" as="targetPoint" />
          </mxGeometry>
        </mxCell>
        <mxCell id="pguH2w8n3191PNCsji8N-480" value="" style="endArrow=none;html=1;rounded=0;strokeWidth=1;" edge="1" parent="1">
          <mxGeometry width="50" height="50" relative="1" as="geometry">
            <mxPoint x="1480" y="520" as="sourcePoint" />
            <mxPoint x="1460" y="520" as="targetPoint" />
          </mxGeometry>
        </mxCell>
        <mxCell id="pguH2w8n3191PNCsji8N-481" value="" style="endArrow=none;html=1;rounded=0;strokeWidth=1;" edge="1" parent="1">
          <mxGeometry width="50" height="50" relative="1" as="geometry">
            <mxPoint x="780" y="600" as="sourcePoint" />
            <mxPoint x="760" y="600" as="targetPoint" />
          </mxGeometry>
        </mxCell>
        <mxCell id="pguH2w8n3191PNCsji8N-482" value="" style="endArrow=none;html=1;rounded=0;strokeWidth=1;" edge="1" parent="1">
          <mxGeometry width="50" height="50" relative="1" as="geometry">
            <mxPoint x="779.5" y="600" as="sourcePoint" />
            <mxPoint x="779.5" y="520" as="targetPoint" />
          </mxGeometry>
        </mxCell>
        <mxCell id="pguH2w8n3191PNCsji8N-483" value="" style="endArrow=none;html=1;rounded=0;strokeWidth=1;" edge="1" parent="1">
          <mxGeometry width="50" height="50" relative="1" as="geometry">
            <mxPoint x="1460" y="600" as="sourcePoint" />
            <mxPoint x="1460" y="520" as="targetPoint" />
          </mxGeometry>
        </mxCell>
      </root>
    </mxGraphModel>
  </diagram>
</mxfile>
